<mxfile host="app.diagrams.net" modified="2023-05-21T04:13:53.323Z" agent="Mozilla/5.0 (Macintosh; Intel Mac OS X 10_15_7) AppleWebKit/537.36 (KHTML, like Gecko) Chrome/113.0.0.0 Safari/537.36" etag="PYUcckzA8uu9Ye8rx79s" version="21.3.2" type="github">
  <diagram id="g4qdKIzgsrIv_ktmMbhc" name="第 1 页">
    <mxGraphModel dx="4176" dy="2527" grid="1" gridSize="10" guides="1" tooltips="1" connect="1" arrows="1" fold="1" page="1" pageScale="1" pageWidth="827" pageHeight="1169" math="0" shadow="0">
      <root>
        <mxCell id="0" />
        <mxCell id="1" parent="0" />
        <mxCell id="MfEUl_gX4qCfyYy0ScXk-1" value="" style="rounded=0;whiteSpace=wrap;html=1;aspect=fixed;dashed=1;dashPattern=1 4;strokeColor=#E6D0DE;" parent="1" vertex="1">
          <mxGeometry x="-830" y="-1040" width="800" height="450" as="geometry" />
        </mxCell>
        <mxCell id="MVkepNN8bB0J-Uv_SQRz-2" value="" style="shape=image;imageAspect=0;aspect=fixed;verticalLabelPosition=bottom;verticalAlign=top;image=data:image/jpeg,/9j/4AAQSkZJRgABAQAAAQABAAD/2wBDAAEBAQEBAQEBAQEBAQEBAQEBAQEBAQEBAQEBAQEBAQEBAQEBAQEBAQEBAQEBAQEBAQEBAQEBAQEBAQEBAQEBAQH/2wBDAQEBAQEBAQEBAQEBAQEBAQEBAQEBAQEBAQEBAQEBAQEBAQEBAQEBAQEBAQEBAQEBAQEBAQEBAQEBAQEBAQEBAQH/wAARCALuAu4DASIAAhEBAxEB/8QAHwAAAQUBAQEBAQEAAAAAAAAAAAECAwQFBgcICQoL/8QAtRAAAgEDAwIEAwUFBAQAAAF9AQIDAAQRBRIhMUEGE1FhByJxFDKBkaEII0KxwRVS0fAkM2JyggkKFhcYGRolJicoKSo0NTY3ODk6Q0RFRkdISUpTVFVWV1hZWmNkZWZnaGlqc3R1dnd4eXqDhIWGh4iJipKTlJWWl5iZmqKjpKWmp6ipqrKztLW2t7i5usLDxMXGx8jJytLT1NXW19jZ2uHi4+Tl5ufo6erx8vP09fb3+Pn6/8QAHwEAAwEBAQEBAQEBAQAAAAAAAAECAwQFBgcICQoL/8QAtREAAgECBAQDBAcFBAQAAQJ3AAECAxEEBSExBhJBUQdhcRMiMoEIFEKRobHBCSMzUvAVYnLRChYkNOEl8RcYGRomJygpKjU2Nzg5OkNERUZHSElKU1RVVldYWVpjZGVmZ2hpanN0dXZ3eHl6goOEhYaHiImKkpOUlZaXmJmaoqOkpaanqKmqsrO0tba3uLm6wsPExcbHyMnK0tPU1dbX2Nna4uPk5ebn6Onq8vP09fb3+Pn6/9oADAMBAAIRAxEAPwD+/iiiigAooooAKKKKACiiigAooooAKKKKACiiigAooooAKKKKACiiigAooooAKKKKACiiigAooooAKKKKACiiigAooooAKKKKACiiigAooooAKKKKACiiigAooooAKKKKACiiigAooooAKKKKACiiigAooooAKKKKACiiigAooooAKKKKACiiigAooooAKKKKACiiigAooooAKKKKACiiigAooooAKKKKACiiigAooooAKKKKACiiigAooooAKKKKACiiigAooooAKKKKACiiigAooooAKKKKACiiigAooooAKKKKACiiigAooooAKKKKACiiigAooooAKKKKACiiigAooooAKKKKACiiigAooooAKKKKACiiigAooooAKKKKACiiigAooooAKKKKACiiigAooooAKKKKACiiigAooooAKKKKACiiigAooooAKKKKACiiigAooooAKKKKACiiigAooooAKKKKACiiigAooooAKKKKACiiigAooooAKKKKACiiigAooooAKKKKACiiigAooooAKKKKACiiigAooooAKKKKACiiigAooooAKKKKACiiigAooooAKKKKACiiigAooooAKKKKACiiigAooooAKKKKACiiigAooooAKKKKACiiigAooooAKKKKACiiigAooooAKKKKACiiigAooooAKKKKACiiigAooooAKKKKACiiigAooooAKKKKACiiigAooooAKKKKACiiigAooooAKKKKACiiigAooooAKKKKACiiigAooooAKKKKACiiigAooooAKKKKACiiigAooooAKKKKACiiigAooooAKKKKACiiigAooooAKKKKACiiigAooooAKKKKACiiigAooooAKKKKACiiigAooooAKKKKACiiigAooooAKKKKACiiigAooooAKKKKACiiigAooooAKKKKACiiigAooooAKKKKACiiigAooooAKKKKACiiigAooooAKKKKACiiigAooooAKKKKACiiigAooooAKKKKACiiigAooooAKKKKACiiigAooooAKKKKACiiigAooooAKKKKACiiigAooooAKKKKACiiigAooooAKKKKACiiigAooooAKKKKACiiigAooooAKKKKACiiigAooooAKKKKACiiigAooooAKKKKACiiigAooooAKKKKACiiigAooooAKKKKACiiigAooooAKKKKACiiigAooooAKKKKACiiigAooooAKKKKACiiigAooooAKKKKACiiigAooooAKKKKACiiigAooooAKKKKACiiigAooooAKKKKACiiigAooooAKKKKACiiigAooooAKKKKACiiigAooooAKKKKACiiigAooooAKKKKACiiigAooooAKKKKACiiigAooooAKKKKACiiigAooooAKKKKACiiigAooooAKKKKACiiigAooooAKKKKACiiigAooooAKKKKACiiigAooooAKKKKACiiigAooooAKKKKACiiigAooooAKKKKACiiigAooooAKKKKACiiigAooooAKKKKACiiigAooooAKKKKACiiigAooooAKKKKACiiigAooooAKKKKACiiigAooooAKKKKACiiigAooooAKKKKACiiigAooooAKKKKACiiigAooooAKKKKACiiigAooooAKKKKACiiigAooooAKKKKACiiigAooooAKKKKACiiigAooooAKKKKACiiigAooooAKKKKACiiigAooooAKKKKACiiigAooooAKKKKACiiigAooooAKKKKACiiigAooooAKKKKACiiigAooooAKKKKACiiigAooooAKKKKACiiigAooooAKKKKACiiigAooooAKKKKACiiigAooooAKKKKACiiigAooooAKKKKACiiigAooooAKKKKACiiigAooooAKKKKACiiigAooooAKKKKACiiigAooooAKKKKACiiigAooooAKKKKACiiigAooooAKKKKACiiigAooooAKKKKACiiigAooooAKKKKACiiigAooooAKKKKACiiigAooooAKKKKACiiigAooooAKKKKACiiigAooooAKKKKACiiigAooooAKKKKACiiigAooooAKKKKACiiigAooooAKKKKACiiigAooooAKKKKACiiigAooooAKKKKACiiigAooooAKKKKACiiigAooooAKKKKACiiigAooooAKKKKACiiigAooooAKKKKACiiigAooooAKKKKACiiigAooooAKKKKACiiigAooooAKKKKACiiigAooooAKKKKACiiigAooooAKKKKACiiigAooooAKKKKACiiigAooooAKKKKACiiigAooooAKKKKACiiigAooooAKKKKACiiigAooooAKKKKACiiigAooooAKKKKACiiigAooooAKKKKACiiigAooooAKKKKACiiigAooooAKKKKACiiigAooooAKKKKACiiigAooooAKKKKACiiigAooooAKKKKACiiigAooooAKKKKACiiigAooooAKKKKACiiigAooooAKKKKACiiigAooooAKKKKACiiigAooooAKKKKACiiigAooooAKKKKACiiigAooooAKKKKACiiigAooooAKKKKACiiigAooooAKKKKACiiigAooooAKKKKACiiigAooooAKKKKACiiigAooooAKKKKACiiigAooooAKKKKACiiigAooooAKKKKACiiigAooooAKKKKACiiigAooooAKKKKACiiigAooooAKKKKACiiigAooooAKKKKACiiigAooooAKKKKACiiigAooooAKKKKACiiigAooooAKKKKACiiigAooooAKKKKACiiigAooooAKKKKACiiigAooooAKKKKACiiigAooooAKKKKACiiigAooooAKKKKACiiigAooooAKKKKACiiigAooooAKKKKACiiigAooooAKKKKACiiigAooooAKKKKACiiigAooooAKKKKACiiigAooooAKKKKACiiigAooooAKKKKACiiigAooooAKKKKACiiigAooooAKKKKACiiigAooooAKKKKACiiigAooooAKKKKACiiigAooooAKKKKACiiigAooooAKKKKACiiigAooooAKKKKACiiigAooooAKKKKACiiigAooooAKKKKACiiigAooooAKKKKACiiigAooooAKKKKACiiigAooooAKKKKACiiigAooooAKKKKACiiigAooooAKKKKACiiigAooooAKKKKACiiigAooooAKKKKACiiigAooooAKKKKACiiigAooooAKKKKACiiigAooooAKKKKACiiigAooooAKKKKACiiigAooooAKKKKACiiigAooooAKKKKACiiigAooooAKKKKACiiigAooooAKKKKACiiigAooooAKKKKACiijrRdbX1W67X2AKKKKACiiigAooooAKKKKACiiigAooooAKKKKACiiigAooooAKKKKACiiigAooooAKKKKACiiigAooooAKKKKACiiigAooooAKKKKACiiigAooooAKKKKACiiigAooooAKKKKACiiigAooooAKKKKACiiigAooooAKKKKACiiigAooooAKKKKACiiigAooooAKKKKACiiigAooooAKKKKACiiigAooooAKKKKACiiigAo6UE45/kCf0HNfk5+2v/AMFfP2Xv2R5NU8H6dqj/ABr+MumqVn+Gvw91K3NroVyVDxQePvHrW994Y8CtOqypFZ38l5rss8Rhj0R8l1Em9ErvsgP1WvNQs7CGa4up4oYbeKSaeWWRI4oIYlLyyzSuVjiijQF5HdgqICzEAE1+O/7VH/BZz9m34LzyeFPhHqFr8ffiTHfT2M9l4V1ZbL4e+HZ7YKZF8U/EPyrrSPOmbfBaWmgprkstzFLE4iUNIv8AOn+07+3X+2f+2Z4J8U+K/H/iTTvhJ8C7DSp9X0XwfpGrXPw48CePdUmnaHSvC82p6sU8WfG+/vIYrS/u9K0RpfDejOs+pQW+nrKbZfH/AIS6p+w3Cnh7wB418JfFLV5PiN4Uh0nxt+0NrXiaQN8I/HF2lleaX4k+Gfwr8FwzaBf/AAz0PX7qJPF0XjWHXdf17wnEJbk2A1CKWGrSjZuLVnfVNAfsF8Af+CoXx3Pxt8I+M/2if7Y0fwH8T7q70XwfaDwrdeFPhjp1va6jdWsbWVxqEMpuRJE0MJ8UazrMcbyWrtsnIuZk/qH0HXNO8RaLpevaXPHcadq1lb31lPGwdJILiNZI2VlyCNrD39QCCB/A3rnxr/sDSviD+zf+0a2oax8fPCGqTx22sza9p58NSXvhu3fS/AXjjwtrMUd/NqB8Z6GTB4PEN1L4bfSo7m2ubkK1u8H73/8ABG79t65+JGh3X7OvxI1Yf8Jd4SgD+FrrxJONE13UtNVQVtE0ZvmYwIVeIFVfyyqszOCi+Y5SoYn2rbdHEONOat/Cmv4cr6vlk3NS0ik2m29AP6DaKav3VwQRtHIOQeOoPcHsadXo77AFFFFABRRRQAUUUUAFFFFABRRRQAUUUUAFFFFABRRRQAUUUUAFFFFABRRRQAUUUUAFFFFABRRRQAUUUUAFFFFABRRRQAUUUUAFFFFABRRRQAUUUUAFFFFABRRRQAUUUUAFFFFABRRRQAUUUUAFFFFABRRRQAUUUUAFFFFABRRRQAUUUUAFFFFABRRRQAUUUUAFFFFABRRRQAUUUUAFFFFABRSZHqPzpaAK9FICCSAeR1HpyR/NSPqDXw7+2J/wUX/ZL/YZ0P7f8ePijpVj4nuIDPovwt8Msvif4reJMxiWFNG8E6a8l/HFcRkvBqmuyaHoLhHQ6uJzFDK0m9k36Jv8gPuuvzZ/bH/4Kq/so/sUWs1j8RPEOp+MPiIbQXFr8JfhrHpniXx+jzIWtBr+nvqdlZeErSUpL52oeIL6ztbdUG1p53SBv5iP2lf+C0/7dv7cfiTWPhp+yJ4b1P4M+ALBbybW7fwXqtknxGi8LxpFHPrXxM+M+raYPA/wh02aTE1jLZ6hpSFUubZvE+qxxXCV+T8cXw78BeNBrWp33g39p2+l8P6yvjy0/tv4l23w8m+LmoXxv/t7eO7SfTfGvxm07wsd91rFrFJDoXjFLYXVtrNrPPcSx9mFwbxPPebp8nLvBvm5uba8o2ty+e/3h+q37R//AAVQ/bf/AOCgy61o/wAL3j/Z6/Z1srqDS/FdxofjlPCHhSwsNbWaK3t/jH+0EyxWkl3d2+/yPBfgaJXEyEapba3bvBGfzebUvg38N9I8R+FfDGnt8cfGOsWcCal481S2vvC/wR8JatFqEl0NQ+Hng25abxL8ShJbFH0zxP8AEd/D96nnvdv4bihuY0k8u8a/FrxN8R59KbxvrDaxbaFapY6B4R0bStJ8D/Dvw1BAPJgtvC3w48LWtp4b0a3gtRFaRSNY/bpoYv37GQsW4m8v76+AVh9mt1GEtoAI1VMEBWZcZwu3CrhVxhQBXr0MJh6K0UZz6znZu/kto+VldJ6t7geu+O/iv4r+IM2q69448Qaz4w1mG2NsNW1fUHu9RsdEuFtYH0HRZZLc6T4d017exitWj0SDRnECRqtwJ4Ip4vEvCiarANP8R+Ek1XW/F0Av7nVPCa6HZabqngfw7ptsJr7xNZa3LqlgmqaLHbopld1Jtgm4P+9Y1HrN4l1ox0ZQATkkheSSd2ScAnrnknr25r5ktfEFra6gmpaX4gcNG6vp2jDXNc0bRkZD/bo8NR7slHV8OrJtcMNysD8wyxipJQShB35vh5Va3LvZPu7bW+9AfrTZePdQ8b/CjTPG3hLTvDNz8QPhzaeIL34IaVqka+KNej8DaD4Ysfiv45+F0mizZs18T+BNSg/4TT4HSX8Wtzw+BdR8YaBoLrrNks8Xvt1+194F1DVPgr+1P8PfFPia/wDjza6y8Xxdi1tdHGliHUNNjsbG3sdcXU59b8U+LIL20W11HUS9v4d2w6BbJBIJoref8hvgv8RNVC6aZ7k6BH4QvLbxlo+q6XHNrWseCfGmsSk+E/iF4fv0ltbmz8b+Gda0WSG88OWzRCGymRxNFG0kcn6E/FHT/gB4F/aN8deJPDMOjftDfs1fFXxJe/Dz4OWvhX4vn4e+Mk+LOk+DdG+I/jDwx8S7a70TQx8N7+617Xdc8S2NnpqxS+JPDyTWmk3rLb6yw8KeFVV1E7cqto4qV7380lZpa9G1tpcP79v2Vf2gfDf7S3wQ8A/Fzw3ewXEHiPRbSHWbWFlY6P4ktbeIarpk5QKgmiuHfIRQoDIvGMD6Sr+OT/glp+0J4m/YK/a91H9k348a/p9h8O/jNpOhy6dqg1nSdc0vQPiDNZ2reG75tY0PVtW0WzsNSZdY8Ma8YbqCKDxDHp5uI4YlYr/YXBN5i4YgsApDqdySK/KOjDqGHOfx9QMaba5qctJU2466c0V8Mlq+j5XrfmTvugNCimhgQMkZ7806tACiiigAooooAKKKKACiiigAooooAKKKKACiiigAooooAKKKKACiiigAooooAKKKKACiiigAooooAKKKKACiiigAooooAKKKKACiiigAooooAKKKKACiiigAooooAKKKKACiiigAooooAKKKKACiiigAooooAKKKKACiiigAooooAKKKKACiiigAooooAKKKKACiiigAoopDwOBn2oAWkbofof5VltqQGV2YwcZ3YPX0/wDr14N8cv2ifgx+zR4Lvvij+0B8W/Anwg+H9jcR2kniTx74hs9Cs7nULtitpo+jpN5mq61rd6dws9H0CKbVLwxkQ205CqGk3ok2+yVw6N9Fu+ivtd+Z9BMxBIB/QelfKP7Wf7cH7Nn7EPgaPx/+0d8TvDngXSLoXEei6FJfR33j7xhexbAum+AvAdoJfEXjK/LPie30a2le1BjaXiQY/lV/b0/4ORfGHiE638OP2E/Bh+Hnh5Tc2En7Tfxb0yJdfv5Duilu/hv8HtUeWLTdsqSeRq3xGmumvLeSCK98H3FwGFfzG/Gnxr8WG+LVx4l/aFi+Kfjj43a9qnh6fxlrvxUv7wfHI6Xq6f8ACQapBpOpeJtI1KPwlomp+GhFN4fuLLS5PCMGuT+HLafSZrOG10wiV2k9LtL01t+AH9Kf7YH/AAcB/tQ/tO32vfB39gj4aePvhdpWrNd2Vn4m0zw/D4s/ab1+w2vHJcaHolol9o3westWtlW6TXrhfEt/pJnlKa9pNxcaa8f4h+JvB3gbwb41vbr41a7L8dNdv9PtdX8Y+G/BXxevW1O9+I95At3Ppvxc+PkF14pk1L7FBNax+MdO+H2sa/eWMclsmg+K9H+0TQj1f9rL4n/DDw38Tl8E/sp2dn8Pf2WPi98C/g/4y+DeteFLzWLTW/2nfhhqOhafB8QdK/aB8QDVG1Hx94m+HPxh03xP4W8ceGbyWHQPDkl1LdPo8kN6LZfk5NVvIo0tYL2BLZSFSzs7GG0RF/iQzKqGRSBggu2Qe9evh8NGlFyk1U9pCMknFR5Xq7JtyvvvZbdb2QepeMPiB4q8Y+GrPwZexaF4P+E9tcG+0/4K/DLSrzwl8I7e/GXj1LVNFmlm1X4ga4GdhN4i+JOpeItXuUis5Clvc263k/ORai6IiW8JjjBzHFE4RFyNvyouFGV+Xgcrx04rlbXUGkivoiuWJX90GB3Mu7ABIPOf/rVOviBJFVGH9ntp0as3GGwQuWJ4JySDyPm3ZxyaVPHKCmlQSvppNLRXs9Kavu9/8wOhWK2EqSyMIp5f3rMpJGckqDnIxzjnGSODW+byC1tY7qZxdvIQhiVvmVRwp+8T6Y4wADx0rzy2ubqaVrlM3dvM/neY2CFUtk545DE4HoTg9Kl1VJCjXcTvDDMojC9VVgAGIAHrxkeucdTWLqXbfNu7r3vuXyA5TxlrN/PqGhaeL7+zv7TU4/tD/iY5Fip/4p5eoOQQenPHU9fItUjvg7adt0zTv+FeSN4i8HAIPEA1CwGQGGFyDt+UeDTyFOATxV/4p3V7baNMracdZv1aOXS7cAb7XUIsvbXoIBO12AguMBgVKPsZjI1eG6/4llbX9MspPEb3+rNfab4hfwZqFif+EO8QsVBfw4cH/ingDnI7EknB4pynKduZt22v52X6ID0jwZ42uFTVPGFrY3g06bxGh1DUUvPtng3UgG8QeIPEPiL/AIR4nPh7xCOh8ZDP3s8Divv79nWLwl8SNeuPAvjTwxYHwv8AGjSNB+D3il9O8LT3WteKdO1jXhYfDnxt4N1BbPW44/iz+zN4h1o+K9Gube1in8Z/DR/G3hXYqECb4uv/ABH4O8Opqnw48O+Gr63j0DxD4kOgWukaedQt9d8PfEXTSNUvPGCDC2EemrYlBkZsU08jua8cs/E3jf4JeMPCjaL4k8S22p+FNN0rxNoxt9U1OE6NL4L10f2Zqd14j8NkHSfEig7fDknhoqyg8Yqf6fmv6697dtU3ZN9lc/YH4C/BC58e+DfjZoN5+0P4S0P4yfs133jLw/qX7Ouo+HfEWowa/wCGPhje6hoPinxr4S+LmqXOl/DzQ9Dn1IyXWieHbuS0kZ0mKaysU8cif1Zf8EaP+CjX/C7/AIeaN8GfiBq8uo+NfB2naLZ6RrWpak91qOoeGJrCJNFjvb+7c3GpSXMUDrorMVd2R7ZtpuHZf5bdB/aJ+Kfxd1RPjtc6r4N/aD/ao+CHhvxN4z0Lwz8VPgn4L8V+Df2mf2ZkfRLv4lfCv4ieDWstF8Ja98Yf2ZGup/i//wALWGnQ+LPH/wAFIYpLHS9Ni8Ipcxee/Av9p34j+Bf2lNF/aR0DS4vDegfFDTbb4n2/hTwDaRaR4O1TwXqWpalYyweE7K2Bh0G20x9FE/he1SKRYLdLNYo/IEsM3LjKVXknWoUfaOhRqYiUuZQk405U17OUYqbl7RTk4tXs4XSbbS58PiPbuouTl9m0vi5r35v7qs1y+a13P9O2KdnkUD+PcwGPmA2lscccDrxV8cgfQV8j/slftF+Fv2kPgZ4O+LHhjUINR/tPStPttZeAqottSe1gmuLkxgKYVu4ZYbsREA25mMEmJIXUfU8DOdpyzIwJ3EEgjBIOTnH5j3rzsPi1iKamoWuotrmvZu918K+Fpp+aZ0mlRSDoM+gp2D6H8q6wJ6KKKACiiigAooooAKKKKACiiigAooooAKKKKACiiigAooooAKKKKACiiigAooooAKKKKACiiigAooooAKKKKACiiigAooooAKKKKACiiigAooooAKKKKACiiigAooooAKKKKACiiigAooooAKKKKACiiigAooooAKKKKACiiigAooooAKKKKACiimswAIzzjH59KAFyOmRn0zSkgcmqTMwLEchRuI9hjJJAJ/Q1z+u+JtK0TTL/AFXVtSsdF0nSLW41DVNX1S8t9P03TrC1jae7vL++unhtbO0tYkeW4uZ5kghiRpJXVASHZvZNgdSZAOSP1/8ArVxfjf4keBPhr4X1zxt8RfGHhjwD4L8M2Umo+IfGHjLXtL8NeGNDsIRmW81bXNZurLTdPto+jTXVzEmSFDFmUH+Zz9u//g56/Zk+CNzq/wAN/wBibStM/bB+KFlJd6df/EGHVNU0D9nPwdqMUnlpNL42tdOuNT+LDQhJjNp/wwiu9KllMFufGdksk1xa/j9o/wCyx+3t/wAFUPFXw4+MX/BRz9pW7+CXhT43wywfs2eDvEGnXd5BqF5baA3xGh1j4Efs66XJ/wAK70S2TwxpsOqz+NvixrT+MPEWnTQiKOC+3vXk5vnWX5Hh1iMwreyjLm9nTS5q1Xkced0oac/s+eLnqrKS3uehgMqx+ZupHA0PbOlyKp71uV1Obk6SbuoTe2ii+m36fftrf8HJWnSa1afBz/gm38PJfjp8R/ENxJoml/Gbxf4U8Qp4JfUdSYW/l/Cz4YWqWvxB+Kl9BOpi+0NB4Z8OvvttWs9W8Q6TK4f+dH9qb4E/8FMvjn8VPAfxC/ba0H4hW/jP4ueM9C8EeDPHvx41ex8KfCTwH4s8XX62WheH/wC1fDTa94C+AGjatqOrx2KWOpaDayTfaGWZpbhLmWX279lyDw5/wSN/4KXXun/tjXDW/gfR7Lxd8ONO+NdpZXOraT4J0X4k6fAfhP8AHPU9Ln0241O48O+MrTT9a8LzHQl1VPBJv/EVs11PdQtCP1//AG8v+CmX7H/hT/gnv8YvBXxV+K3wA+LfxX+PPwj+IXw1+H/wT/Z9+Iln8X9B8Q3+tpd6b4D8YX/iWF7OTwv4Z0DSV0LxVreqeLWs08O6pcDTdIa41Az215+c5hxxxVPP8swvDmSyx+RY9YbmzOhh/rNRKvdVPbRcovDRo8r1hUvWvJSnS9l7/wBRLg7D0Mtxc83xSo42HsJU6CxX1VRU+eXuuMav1jmSjfm5IwVna81y/wA9Fp8QfjN/wTq/aF+K37Ffxt/ZG8IfEb9rXx1ofgn4VaJ4luNQu/GmheB5NSMnjH4ReKvh5deGtJXWNUn8RRaxDpeoSeZoc2rfY4ptaszd+fEnlX7Sfhj4+fELwXeaZ+2P8ZPDnh/42fs3eINO8J6l+z78SZJvh548tvDd/oWrTSaB8NPFenyX2jXvgj4CSNoWix+ERqN0q6Vr+n+JV1mS8ddRn/L60+LHj3RPHdp8StPvviFqnxHtDZyeGPiHZeL9cuNbTVLbyLG9l1HUtbtX1TXrVvDxbTLS889QZI4JoZD5DyPk6T8Pfip+0n8TfAekfEH4j/ED4qePPHs8/hXwvpHjvxDrGu6s+sJDaJGda1zxNqNnZaN4L0LTQmseLfEFtexjwx4dls/MtLwW/my/rkYV1CEqtOdOo9Jwa96E1a6klezu9nr6nxdWl7Gbp8yly6KSd01sneyvdWd7K972Ptr9kD4jaJ400qw/Za8Nv4GT4jeN/B91F8PfiH8cdEll8J/Bn4y+OvFul3nxF8KeDb7TJ7vU7DSfHng/wxpPirRZLSO802L4j6VLFa6fE+r3Jr0e7tY7bxd4+0LSPEGi+KNP8D+JvEnh1/Evhy7GqeH9V/4RTUZdO1W+06/jH2eWOGVN7RxST4jkjDTCTfGnz94i/Za8EfBq1/aC+H3xu+I2v+EPj78DvFfgfXfht4p+CzeGfiX8D/ix4RsGaHxL47t/F0Gp6Z4m07+yNTTwTqPgHWdLfU28TjU/7ORtummvVNe/aJf9oH4F+Gfjj4g8X+DPDuo+DfDPhv4KePPgr4H+G2n+F/FOufE3WvE+papZeP5l03nxNZfEFjqXiubU205tTbxO3ibw07Mea9KFap7B0XdS5eVTe/K9Lctle0U4pt9nvHXM6yz1W+doZYTpguIgY0MbD57knEbHJwSMZBxhsc8ZFauo2d3PaJq14sa6jaSeZrcKMAt1AThRGoYAkKSxCgjPJ6cea6ZNDeWGbWSGOS2lARlgYMW3feP3uck8ckHGec1tTXtxfX4Se9lWSxgBKKpVbwbfuuD948HHB7Z4Hzc3s+VOzvbXXd922+oHdQapZ2y2xhuJntZUW5m08BgxRwfKQYAZfK3fNzjHr3ty3c97YXlqt1CiW7LdfZZGIebdzGyZIOUU7TweefWsCzkuYLGDUDbQT3MjGC2IUYIdsPuXHRAQR0PHHGM1LpLa8YzNBLHLAphWZHwJQwJdzjBYqxwM5/Wubmknu9Ojb/ECfxLYxX8VtdRrtcRRhmA5wQvPHUjAb6jBIFeU3XgTwTqNwy32iLezD+zmhu0Vo5YX04blZHUB42B7pxjOFBbI7zVd8Y0+P+0GAfI2ZIDAYzuxtBwACcgdeKhtowjtLE4ZTuAZeh5GefrnnGD684rrjUjom0mtN1/SA55/CdxaNqt5DeOAdM0+PTmJJ1DTin/IR8QHj/iYsuVyAF465OKht9AsrfwtYeEdUt9P1k6jDpumHUTpn/CQ6j4e04NvGTx/yL3TJ4OOAcc99GrOynkjase7P/LMEkJk/wAOWPHTJPeun0bTNN0i+bcBenUFfcoG3Bf7xxtGTjtnnAGSK0M6ivF/10ZjfBrxh4s8Fal4ft9U8RSfD/UfD/jDwV4w0HVLS1S9tYPF3gjVpIvh/wCLdS0h42hvtAvor9vDHjfS3M58T+E9T8V6JFaK0Eky9Z8W9CT4feIPB3xw8B2d9oPwv+L48Waz4Y8Iardrbxfs9/FbwYZ7/wCJ/wCzF9q1PUZUiu/CLz6d4h+CLqr6T4k+DfjvwTJBdZs1u25TxR4btryJkY5t9zG0uwA8thI3WKYD5mtnPEkZx/fTDAGvsb4BaD4H/aW8Qan+zV428SeH/A9h+0R4b0Xwxp3ivxH/AGrP4H8DftLeCNG1ef8AZl8b6WiyzQ6NNrvio2vwI8aqsUtv4h+GvjG18NX/AJ9xpHh6SHam1dq11JWad3zJfZaW8X9zts9IriopwnKDW6Vn35dHe3r187aWP1C/4JEft3L+zh8aU+GuuzW0XwM+OGsPJBCGkjPgj4ralbWeqeLvB95HJNJcGdJbo6/pEfkReVa3d9ZLC6RqbH+3HSfEFs+n28kM8U8LQwz2s4ZWSeyuEEltKjg4cFDtJDEkjJwTz/lPeB7rV/Afjr4l/CL4pC98G+OtB1rR/A2u+FbwSaVqfwo+NfgfxJc2V7401LTzJJcXy6JNJmDQYo0/4SrRrwX0d3a2UcYm/uO/4Iz/ALbt38c/hncfAb4xSR2/7QPwJC6L4n0N5wZtf0qGNfsOq2ZLETWmo2Zjv7R8RsQ/lyJGymMfP4nAf2djKUqU3LCY2pVUoqKthavJCcVpJ80a0ue1+RU5LlTl7WEV3RlfR7/mfvVa6lvZTkFenYnhh345x3P41vxTLIoPr/iev8uMj3ri7W/tWkAjshGvUID90AjOCDnrxn6nGK6i0nRtqrEUxu4znjPPJ56np+tdbSWzv8rfq/w+8s0qKQMD0P8AOlpAFFFFABRRRQAUUUUAFFFFABRRRQAUUUUAFFFFABRRRQAUUUUAFFFFABRRRQAUUUUAFFFFABRRRQAUUUUAFFFFABRRRQAUUUUAFFFFABRRRQAUUUUAFFFFABRUYf1H4j/D/wDXUlABRRRQAUUUUAV6KKKAJVbPB69j6/8A1/5/Xq+q9Sq2eD17H1/+v/P69QB9FFFAFeiiigAooooAKKKKALFFIWAOCf0NIWGCQemO3qfegCLft7j8e/8AXv2ppuVBwSufy/mQapXLsoYgnjJJB6DOAPXBJ7HtjvWJLcEHHP8An8sdu/4HrSeibSu0np38gaaXM1aPd6L73odL9pXj5hknAAw3Xp0//V71i30xZsCRsYAG0lTzjOOBg+hIP0r4l/bd/bV8I/sT/B7V/it4h8JeKviPrGn6dq9/4e+Gvgp9Lg1/xWujR2k2rTDUNau7LS9G0jR4ru1l1XWLtp4rJLuBmgk3iv5RNQ8Xf8FWv+C4Wm3l9feKtC/Zq/Ya8Q6/e6BpFr4J1fXrLwRfaNoV3cWF+19rGmXyePv2gfFE0kkM2pC+g8D/AA1ltZo5k8OyqEEfjZjxBlWV0pVMZioUZU03Up1PcemsadKUtKtaorulTXLztSXMmlfbCUJ43EUsLhuSdes7QhzxV7Wu732V7v5dz9qv27P+C9X7LH7LVzqXw8+Bt2P2q/j3BJJYW/hPwLqdrpfwr0LWd3kpa/Ez4z20Wp6LBcQ3QktrjQ/CUHirXrW/tpNM1ez0Od1nj/jh/a//AG//ANvf/gpx4n8UeHfEk/jv4k+DtBtZ9bl/Zl/Zv8F+K7j4VeF49P8AMvprjxh4G8LnX/EPj+9ni1GK70zxF8RtXSztmZbqLw4uISv9QPw9/wCCIH7A/hn4K6/8LPEPg3WfiNrOveG73SIfjh431W4s/HXgKeW0uVtNe+F2k+GdQtdB+H0vg/WJYdah0XS0A2xWZv3tbgltT/m2+MXx6+JP7J3gP4lfsIfHi88V/Cn4yfsu/Hv4HfGH9njx1+zlpt38HNc+MUvgTxD5Hijwp8cfGXgq+8PyeMrP4gfC3V0+JXwp+NHiR/EJ0Pxb/wASAknOfJ4R4+yniXG4/C4aPs1SpU6mD9o48+J5XUVZN3fLa0WrU0knvU+z7OecP4nIsJh8ZipSlRq1lSqT9nyRpc6jyvlUqjum7SUpK7a0j1+RfAHgH4afs4/tZ3fwh/bmg8beFfAnw38dw+HvjNqHwZv4rLxp8JNN8U+BdH1Twp4sinXwtrz60fhxfeJdCv8Ax34St/C+U0mHU0lt4maWWD+m/wAIf8FYP2RP2IfgIvwi8e+JPjT8Z734TeH7/wANeHbHwL8MdDj1K30/w7f6DB4UsW8XaP4r8Q/DZ9C+IPhrxb4f8c+BvEOneKZhp+gX2s6dP4cT/hGQt3/ND+0z/wAFKviN+0V8cfH/AMfPiX8Gv2bvH3jbX9d8Zt8Dh8RfhV4e1rW/gR4av/FVzqXg0a3qnh5vCGk/tK698P8Aw6mmaTot98d/DnjqLTYlE9iYZJZ4U/Pfwn8bvib8Jvi54c+JvgrxNc2vxH8H63d+N/COoadpXh9/D/hn4hTapfarb62+jz6PP4TmurWe9LJBc6E9vgxoU8uONU+ozrhrJOK8rqYDOMJGsqdbD4vDV6c/Z4jCVqaqXdOpGLkoVFOPtIe7zunSk37ln5+W5xmOT4j6xgMRyUa9KpSr0nC8a+sJUakZ81oSo+/a0ZtxqyjeN7v96f2y/Fvx1/4KR6z4K+Mn7bHw1b/gm3+yj4S8A/EbUf2ZNb8XaHrF/wCLvi5r+rWdn4h0Wx8T+JvEk3h7xbrfh2OTw/BLdeIbLQNO8N+D7S+s28Faf4qy12nx1+y/8APgz/wUK8SfBz9lH9nP4GeEfh38cfh7ZeLfEn7Rn7YGhax4s1D4deLPg9b6pBGmuJ8JNdOmS634x8Parc6RokOo6TdeH7jx1qRlvnkjCyyz/pT4p+OZ/bg/YeeT4/8Axq+Cvwn/AGXNX+A/gX4N+O/+CkX7W3hz/han7afx9/aM+GGpD4yeMPhJ8B/gNpnjfTfGF34Y8GfFPx5J4E8O+IZ/CUOvaX4CbUzpGo/bdUIX86P+CSnxQ/bF+FXx303xl+yX+z14i+Nl3Yw6VHr2lnw3qWl+CvEHwZ+IXj/TPhp4kub/AFa3d9asPD41afSdQh17SNO1FPh14i0W6ttfvIxPdWlx49XIJ5VkGLwnDMY4bF0sNOhhnBfvJSrJJ1p1pzcpTp+zTpt3s6js1e0vTy/P6WLzinUz6UsZQquV6MqjhdqXM/3nLUcWpSjf3dX/AC20+2v2+v8Ag381b9nz4F+Jv2nfg38ePEfxf1j4Y6Gl5458CeMPCeleEbi58Im/VNU8UaDd6LrOqadb3Phv7VC9zpmsGbVrq0e3jm1MFlMX83umX3h/4Y6lqU8I8caB8RdOOlN8JfB+rad9ktNUGpAnxt4klutXXTIYvDg1Hw2wZVilPjkFtko2nP8AVp/wUn/4K7/Fb4yav8ef+CeXwV+ENl8F9Vbxf49+Avxp+Ot94tHjRtd0vwB4ws9B8caP8FtIOheHzpGg+Jtd0uK2k8ceMp5bhfDaw3Gl2Sy6jI8X5veOtS/4KF/8FxPFfwN8KfE7w58JfD0P7Mnwsv8A4e/8Lb0rwhrel+L/AIheG7ePQtS1zUL/AEXTYdX134meNG0fwyuuL4V+FTW9l4T13T7yTU7/AMLWevC9byfDmnxngsuxb4uf1+tisW62GlXknWw6terGpUjD9+pXpcqapSgoST5nLR8RVMnrYpSyijLD0o8/NGeIeIcrqPKk3Cmo8tpK0U7pp7JI/KbwxpllfaB4Zs4rfQdO8efFfxzoniPxHbQ2i6ENI0vwRcal4ohtTbyPdNo2gS65qegWjGeW7tIbzRESGCO2g+y13Pws+Lnjr4R+NZ/2zLH4V/EfS/2a/E/ibxf8Cfif8SvBi2VhovibV75pNS8JaHaaje6dLpfh/wAY+FfCNrpHirQ9LNpHrF9d6LGktv8AvZZj9XftHfszat/wS8+IvwO+LGqeDtb8Q3vgi+0O7tvBf7SPhDw1YaD8RPEGqaGPHPw3+J82n6Zca1pXijwLdWc+rW+o/CfxDrPiyTw5r3h/7L4mu5ku7eKvmzSfE37Un7ZOu6jceE08P/sb/sr/ALUP7Qsng7yFtfGVt+zUvxe8UwSJqNhpa6iPEmnbvC1j4mBGm6ZjUPA/h3xsw00HTCCP0GXPN87vd66NaK2iSVtEtNr9d22/nG0uqv6r5abr5nvPjbwh4e+Guv2lp4X8d+KfjH4Ul8N+H/EcvxXl+Hc3g/w34jvviFoieMNI/sx7e4uNHe3h0OX7Ukmn3V0BCitKUllFc0rMxFzHlncZV88sOmN3HB6HpmvVvgVrvjn4ZJ8RP+CfH7Unibxhr/hn4L6h8X/G/wAJfh58DdU8MeKPCP7QUvwz0XxNDd+E/BU5sZEurg62Lj4jeAtb8ONJeeINEuvEumXUUEUegxV5E+k+I/DN3Hovi7wp4l8D6/YWNhLf+D/FWnSaL4i0B9Rt01dbDXdJnVZ7LVFTU4pJ4pgriGW3/drjnRO6T/q4He2+o3FppVokVvE91IzfaY7tyyQRkYMkJA6spJ7EklSDkksOvEabcWiWdlc26lvMvDOLe7iZm+ZYo2IZhk8FRjPbiuZa7juJUH2a4O3mOO1YFoVGBvcsBleOh/AetaXw6NTvU1T+z9RuIbUFZ7sHyLSLHBEkIIDMvGT83PpzWU4NJ210frt2A9LsNK0pItNk1BDqN7JD9p061M4GIGYljKxwMAEnnjsMZIq5LpVhBe3lvMyWv2m1+06ZYwXG62FwRyJGGcEZ57dccdKcGtacdCWzuwDd2sBt9Pmt7fN2luSd3mNwSDyATgkAHnms6bxBp6W6NbETXQt/stgXgJBnAAYSE5IY9u/U9K4Lvm3fxd33Ap2d0Ps7B1CN5jjPdSrNwCSMgDg54PX0rdF+o8gBcKgH+m4OBx8wAODkE8nB4xkHpXhGv+P9OeEWWlfabzUx4i0Tw3qeqWlpcR/D/wAM6v4ju1tdOi8c/EOSBPDfhMTTiRQLqS6dZFZSgUNInoKfsyXWqWrp+1N450T4Hsnj/QV+C3ju1jv9V+Bfx/8AC3hrVdE1HXtK8M+Dra+PxR+NGteMDe2nh3RP+EG0LRfCcniC2uLbXPGdlJGiQejCaaStbRW+4TV1Z9TmZPH2veMZJrX4P+B/FHxKt7XxN4W8L+I/FmlWF1q/hLwhqXinUZ9MtU8Q21jBc3900FzBIssOnwyqw3FZzgivTPiB8K/CXwI8VeJbX9sbxX4m8Qxafq2i6r8Ivhb+zrfW+jfE7423ulDTIbrSvGviHVdY1OT9lz4baX4kij+z+MvEPw+1D4oeLIomuvASWsIju7nwzUv25vFPgT4ieIvEX7FGlXv7MXiHUtWvNP8AFfxaa2s/CXj++1M6YfBl1feH/BHhPU3+HnwUjmttKAvB4O0LWPGR123vhqnje6i8+yb1H9kL4Mx/tFftO2Wu/HX4j6V4p8IxeMPBnjX9sL4l6Dr2o6/rUen/ABD1eLwvpGhXOowahNq+sw6zrUbw/EDV8QXXh22vJVQOUL1lisX9Rw2Kxao18S8Lhq2IVDDU1Wr1HTStCFPmhvd3lzNxdvdley1weBWMxdOj7T2fPf8AeOHOotWV3Hmgtm1fmXprph/tPfHb4m/tnftBfEX9p34q2HgHwN4nfR/AfgPVPDfhTSNc1O38Q+GPBum6PrPh2/8AG3jfxFew+JfiD408ITaHomj+IviH4qltW8XPol7aRRy6Bc2yj9CP2Zf2rPiV8LfH/hH9pHw1dwa98WfhXqx/4WDZ6Nb/ANiyfGP4J/aI11K7t9OsSFu9e8PTurWVpvleXw/JC7vHNdyhP6S/2k/ir/wT/wD+CUvww8DLNdfs6fDvwzaaBqlrbfBHTPB9j4o8XfE+01zT7WO61YWFs+v2Wp6RLYMbnfq+k2z36atc+XqMt46o34x/Bz4B/AP9vH4yeI/22vhu2vfs/wD7MPiPxxOLP9l7w7a+FJPiVp9jqHg208Oz6nrHi5EufBnwf8C+JfGNpq+tfD7wh/wi2s+JfGXhULHt0SxAx87wzxJi+KMPXlmOVPK6EZQcK0uWUqUZOp7Kb5IRp1XONP36caidJpKXvNHXjsrWCrKlHEe2vZ83suRLSLWntJp7666W8z+3v9n348eDP2jPg38O/i/4E1SHUdH8V6LZX7LYyBprS5kiVbqyvEzmO7sbpLizvU+6t3bzGMtAYXf6SsbtcLtdxkcFjzjPfBx7dxwcZr+XT9gj4h/D/wDYd+IXhf4VeHPjlH8Uv2f/AIy+KptD8Vs8ses2HwS+MmuyQ3HhXwzpfi+y0/StN1/w/wCOPC9vBP5dpbA+G/HNleeHZftF74htWb+mfTbncVxIJFOD5iMCkilQ6TIRkFJI2V1KnBD4z8uK76GNwtatXwtGt7WrhWo1HyuKnB3UKsG21OM+VttbaXs3Zc1SjKkottu976WttZrV3Tu/Rqx6DHK7ucscYJAz05HpjOBxk/1q4hODyevqfQVl28ijBJ6xjsevy+grSjIK5zwTnPTggV2GJcopMj1H5iloAKKKKACiiigAooooAKKKKACiiigAooooAKKKKACiiigAooooAKKKKACiiigAooooAKKKKACiiigAooooAKKKKACiiigAooooAKKKKACiiigAooooAr05WI+np/hTaKALFFRoeo/Ef5/z3qSgCvRRSZHTIz6ZoAWiiigAooooAKKKKA626vZdWFFAGeBQ3yDLcD1p2fZjs72s79uv3BRSBgTgH9DSnj/Pr0os+z+5ktqNuZqN/wCbTTq9bbBRXnXjD4o/D/4f2zS+MPGGh6AScD+072Kz3EbWwDMUUttdflGTk8ZwSPkjxh+3n8OtNkltfCGh6/49njOBd6dG2kaLKehEGsanaRQTgYyZII5YipQo8hYqN6OFrYhyVGPPyOPN0a5r2dn6S6ra/U+E4o8TOB+EPaLOeI8qw86ablRWLp1sTFpxTjPCYb6xi4O84ct6D57u3ws+9BKB1OR3yD/hn/PSvNPHnxc8D/DnTv7Q8Z+JNK8NW7u8ds2pXcUUt/LHt8yGxtsG5vJow6F4rSG4kVXVimCDX4zfFL9uX4ma4bmK88UaF8LdEZnjt7bw08ur606ZGEur6SJHhnwVLtEEgV1zFsyc/Fup+JfF3xH1mKy+HHhbXfiD4i1F5Tc6nrsl9qjTlyNlxHbw29y8K58zaEXLeY48zA59qnkEuVSrYmFLTmcfZqTta+r9otbO7STXqfzPxR9MnhuGIhl3BOUY/iLM6sqsMHWpQVWFWpTUfaeyyuFKrj68bzpezdajhtJNzjBb/rP8Uf8AgpF4A0BSPBfh3VPEc1vK6Jfa1qEXhXT2ccM32O6D6new42tE32eIMGJ2rkZ+APiB/wAFR/izrk1zZ6H4h8PeEY1JUQaT4f8A7YuoEPBU3erPNbO3pJHbR44GBgYf4D/4Js/GHx0bbU/i94t0TwfbSGOT+zpyl7rHlfeC/Zba4gjjZQPLLXZt5YywL2sg3Y+nNP8A+CfP7O/ggQHXU8ReNdQjAEk99qI03TjIpJzFFpgWbYCCWV2IboeOK7KcMmwsZyrXxbsklFezacfjTs5tqbcbXaSa0bu7fmDxP0uPGDE15YeVLgTKJyvSnja1LJ1UpVlvDBUauKxuHcVC86VdU6nPJRtF6v8AI/4pfteeK/H1vbp4/wBc8T+OLe0kuDbW2pmzt9Lhe5RYrh7awgskt4TPGqRS5EoZAFwFznzbwj+1Tf8AgrR7Lwt4Ot9d8DeFNNaU6Z4f8K6rHpWgaaJjmUab4c0+1sdI09XIG5LO3hRsKpG1FA/dOb4D/s6+Hgs2nfCLwRdT5O5tTtdTvnYg5XMk+pqJCRkkmJfmGQo4I/C//gq98B/G2n+H9a+I37O/iS++EttrOmXkFpY+BlsYbHTvEeiRTC3sb2wvbLUseGfElwstuTuhR57fy2uld41fwc0x3Dtf2NLE5Hg8ThV7VVKOIpKbqJ+yV1Ut+71T5vdkmnHblKp/Rx+knhcRDGYTxl+pZs7qPs8TxBiIV0rO0alGval7K7s507TVT3VyxaPXvCv7e/xB025A034k6hHIMAReJ9Ms9WtwB0UiZQdxI+Y+Yc8HgV+cH/BQn9lz4k/8FFfifF8abb4h6DbeONH8G6H4Q8J+DR4UsdJ8Drpuitq0zxWfiGxebWrPV9VudVeeefVzrEbkPBatZxPKjfzuW/8AwU9/aV8A+IbjQfjd4U8KfEO60g3GnahFrPhfTtA1C1nV3hLxXHhSx0e3M6KiSLc/ZXa6VlkLssgc/qX+yX+254f+PDS3ng3S/GHgrxh4TW41O7tLK6u9U8KT2kCq0/8AxNpUittPu4tqONPu3LyxuUSc3Jhgn48uyrw4jXWJw2QPJ604tfWMLPmlGTSb9jJcsafM2/aaPntG+i1nNV9Mnw0jQr5xnuM484doTc8W8JXWYexVJwlCVbLsww88wnz80uR0FePJP2r1g3+SX7SPwH+KfwH1fQ/CXxb8K6j4S8QyTatKbNJpo9Cvrewawjjv9Ev7S5hbVbe6+1B5Xlgtvs5EWYmMwI8A0y/26nZPYWVjzqG4nXToRz4s0HQl6iw/sIEf2CD/AMJaPFuR1x1xX9rvjez+Ef7a2m/Bf4BftH/DfULi4+IUnirUvgz49l8YzfDP4feKPjp8PLNC3wD+I/j3QrHUfHHhnT/HvgzW9d1OK58HvH4j1nV9Eg8KRXVteTPGPhn4g/tBf8E7vgD+y9+1l4B0zwz8Bv2iv2a/iR48+BPwZ/Zd8M/D2+0T4Rf8FBPDnw38Fxan4x/aXu/il418TfC9PHFvpfwz+JEYh+EviX4yaF4g1jxNbeKB4W8Ra+fMKL7UcNg6cmsDXnWp3V5TalNWd4tvm3et3bXs9T+1/DXijiLiDg/Ksx4lwlPB4zF4eGJpYWOHlhqlKhiIpxnUUryk6nL7kHTg4KDfNPmtD4J/4JvfsefsVftm/AP4uN8Q/FXj7Vf2vtF8Vaj4a+HvgTQdM+NemaR8LfBfjeNbPwF8VNZ8QfCL4MfGK6+M1l4x+K2rWvhi98KapL4EuPCOlaa5bUbj7FObj9M/jV+3B8Lv2Uv2rde+J3wq/ak+L3xa+JP7O8Phr4J/s+/8ExPhto3i/Rv2WPgn+0L4X8P+GfhL8bxpvje0TUfhp4k/Zs1LS9N8cWPhrwP4aYfEjU/FHjYLqOljxR4bGqH+fzWf2svhX4Q0f4m+Ov2dZ/2q/D/7R/xS8QajqOrfFv8A4Wk/7PvhL4dfDS91W3aw8A6J4K+AE/hj/hbviPX/AA1p9tp3jnxZ4tufDXgxNWhkk0b4dXaRJLD+eGo65cX0/wDaltczXepRXB1G3FxNJax6JqN1J9qnv7S9meS5uL2e5drme7mle4mnd5ZJGkYtXRTwSq83LUdNxtZ8t9/SUOkbed121+yUrV3X68toq9+VSs3Z6tK+raS7W7/03/tHXXxM1/U9f0z/AIKVfGDXfg3oGi+EviFrX7NXxv8ADN94F/ap8HeA/GnxzmbUI/g9qvizTo9O+KfjrwT4a8Jaw3gPw69z4mMngxtK8SmyywIH6e/Bz9sL4of8FE/2Tfh34l+Fvimz/Z9+Nv7IHhL4/fEnxbpX7Nvjnwd8NdM+FkPwl+GI0j9n688Q/s7+NbDS/Hd18Dv2xrrU9S8FnwD8NtVfT9LTV/8AhIvFfihgNN06v4GILm/1ACx1C71LVP8AiY7zvuYL/T87SxxYb2HQHDH5fTBIr9O/2Mv2rPFPwdPiXVBoXw7+J2j6T4P0X4Z/Gv4dfFDwCPHnw1+JH7OepeO9O8RPpHin4ff8JH4X1HxFrvw38aWml+K/CEFn4le+1eNJ9ACIkdtu58XhJ4aFP946sW5J+7yqL0tZc8t/eelrWtu0dOHm+ap7z958y1fa9vufkfsrZ/8ABOD/AIK7ftwfCDwf8b/j78ffhvb6v8PvAvxW0L4WfBT42fErw3e+JdFkvNGbSfiN4N8JfDHWJHt/Dvjiwit7u1MPiW/lvNA/syK/N1ZG/tmX8Lf2gfG/7X37Nz3f7F+u/FPVtF+GfgefwR4psPB+gPN4d8Hava6h4e0fWPC/j+2sdSsP7U0jWr3SPEUEet4li1i5ttR/4RiMXVtcmYfsv+0l/wAFGfhp4/8AiPZ6J+znaah8KPjZca/9g+P37bf7QvgDwvrOu+JPDGk3Yku/2h/h9+z/AODdam8G/Cnx78MtNj1/w2mi2MHi3xcPhF4W8KW0utt4i0Y3jfQnjr/g3g8e/EH4deKv2kPhl8evGf7R37UPhfwTJ+0t4XtfH8ep+JLj9qTwdb3BvvCN1p914gu7m8tbzXfsR1HwvC2+W8e6XQ5UJijli8jEYvD4Xk9vPk9o2oe63dx5bq99PiX3+R6WHw/t+f31Dk5d0nfmv3lHa39dfwj0f9mX43+I/Cra38PptN+A3jL9kPw63x6vtE+Lepaz8JvFP/CWeL/E1nrOj6R8OP7ftLi4vZfDfh3SfBkGi2esz6TB4kgluZPDV99j8pYfojxZqb/H7wNon7S/wp8AfGrx18SNe8Q+PPEn7ZT694/0nxX4U+EPiTw7oujabrE+nNOVv9E8PeK9UF74o8H6OkmpjVNAt0hiuw/hryo/k+6u/wDgoj/wU3+MeraFYa945+NPxNl8KX+pXOgWMek+F9aXwB8JrGYale65dNb6ZLqVp8P4N9ip+2a5rsJlaBjbLFEX+itO/ZQ8OfsW+Fvhrq3xW/aJ8I/EL4PftSaNqHgH9sD4WfDjxXrvhr4h/AbWtF8T6RP4S/4WRpS3Ftr2qeFb6a4kmXxCJdIj8YeCdV8bWnh6ykjhfUznDGUqiU6V5xdlptrqm9HbTR+T11Rq6Mk3routv0/4P4ahpcz2VnDBdf6deMwS+1BdwOxsZIGdwOD2O7ODjjFdvpfii8jtZfC+moSJW1FjfcqrgEsMnHPU4Y9Mnjses+JnwI+MHwu8c2vhrxF8Db/4cWfxM1vWG+DXgjw34jn+Julan4at9butN0OPwx4/a+nk8V6TfwQbvDl/OovNQ00W00772Ynh9D+E3xO1XXVt/FWg6NqfhzwV478W6d8c/Aml+OdP8FeN/hP4V+F8F3deJJvHVx4s0vRrDSba4nNzbanCbtvFulWtlJqdr4S1y3EiQ9MneMX3s/vTMXo2ux51c+KdOi8U+HPBmlSwar4y8W6ta6JotiNVs7a2lvLkEBb++uzFBpcYDAqWWbzBvGE8vLd74U+BXiD4geHfEHxF8d/EXRfhXH8DvjJr/h/4ifB/4m6d438NfDDxb8PPBhOnfEbXdV/aC8O2er+GfGWpaD4z/wCEe04/DL4aHxP4j13w74hPloWGD+q/7N//AATP+D/hzSj4T+JGt+GPjFpsWsWP7TGheAfihoCT6r4I0keNfEfw90ho7u90zw74z+PB01L9fD3xBuNd/wCEL+FkgHgzUx4MVWxX7lfBvwa+t+EfiR8DbDxfd6BL8TfAV14M+F154n0zwDD8PtG1SSw1C2vPhlqfgz/hFn8M6L8JfidpV5L4X8SeG9LjuLa5sEhs7lJ9YltbFef2acl7yjd2TfS7732Q0m72Tdt7Ju3qfytfs4+O/wBmrSPFtn8Ivh5410j4Mfso/FGbxt468UftNftD+CdQ+L3wS+Gnia58PrDdeHfhz+znBqF/c2FvbeN9L0vRfCPxO+PSfEDWNNL+HtffwHoV0ZXj8r/ag8M/AP8AaO+DB+Kf7Lng39prxvqXwi+OPw/8D/tC/GHxvqur/Ezw9pt54q8N6zJq/jXTL68ifxR8OfhhrF14f0W10vRPEt/Ho/hfXjcWuhRaH5kfkeUftkfBZ/gZe+AL7UPh3rbfs+H4o+PPH154EOpXen2dzp0/xDl8E6n4X8O+NEsbBdV8MfDDx/4CuvhLDrdrBGbo6Z4R1OW2EV9JFH9u+H/HX7Snx7OiftnaTp8n/BOT9hH9qvxhb/s4/GzxD8Abaw16efw38O/Dmnadba7r3wZu/wCy/DmmeEZbBhruv6vLG58Q6n4d8SSRthgTtiKcMNGjKM1V9qpN2snDl5ezle/M7fDt56I+PvgnpP7P2r2/wH+LHg+y8UfFj9vjVvFfiXxuvwc0H4eS+NPBnjPTfh/oTN4f07/hXr5j8RfGPxFe+HzqnjDTseIfBviHw/qOpakRp48PnOh+278Dv2m/gD4k+EP7XGm+Dvhf+ztZ/F3w1ZfFu78O/A+Hw3onhn4V/E7xy2tReM/hPf8Aw207X/Fep6bp+la1b+G9Bm0nXtJttLW7uHEbTTKI4fkq8+J2t/sQfHu7n/Ys/aK0fx7LZaJpWm/Df9orwf4NOk+I7Vp7u5/s+98H6PqV7eal4W8UXFrHKt1Yyxm38Ry3kpnvZYreOJPoTTtKvPF17rPxF1XxDr/ijxX8TJdL1v4i+K/F+ov4k8QeIvGum2uoR6leXuqXv+kJJa3euaxa/ZrRrayVLiZRbDJNcCquUpRjO7acJRUm2oyaumk762V+9tdkdWFqyoTVaKT6Rvs9tnbvbZ7o+afDn7Pnib4neLbPxH488YeIPEK6jbadqd34m13VtW1bxDcPqUFjqktlqF1q1/f3fnWReS1nVrn5JjLCIY/I2yfWPwv/AGmfFH7PXjfQfhB8W9d1vU9B0bTZvB/h/VrfZaQeOvhJNPDdaBqniaWKFl1XxH8KprEaTZSg232nwzL9iubZZLRpX6yLzYAqR3exlC4VCEGCMDAAUAYGAMDgY7V5n8b/AIYJ8VfDNrHp1rFqHj3wJIfF/ha2A/e67ZW8Rl1vwuzsrA22sRxlGRlZfP8AsIBijaQ16GHwKlRr0OdRhXhGm37NLlqN3g37yScuWUHLRLm100NZ1pVantJtykpJxWmii78q3tu7OzvZaNuy/pP/AGZvht4n+K48SeCIBYS/CzxroemWXjjxFqmqx6N4T0G3klj1DQfG+g+LrjZa2WreFr+6j1fwp4jX7OI9ciaNLaSTDp/RT/wT4/aK1LxL4f1H9nX4n+PfC/jz4z/A6103RZPHvhjVLW/0T4w+AZ7bzPBvxM0ZoHwsuraejxa7aJHENO8RWur6eYolt4Y4v4Av2Tfj5468Ta5cfDrXPj/8Ovhj8GvCfg7RfFjD4lfFVtC8CfBHS9a1O7tvF/w/8RfDjRLSf4l/E/xP4Z1wahLoXwq8KeH9beGyurrU0cxyiJ/0d+Hn7d/hj4b/ALSnhb4l/s1+Mvil49+HXwGWz0jxLcfE3wzpXg3VviZoGsyCDx74k8J/DGwkbV/BHghdfubOKx8MeIfEoke7ePxZcf2fb3d9ZTeDi+HZZV7PMcPXUKlKVq9OEfarE0JL95CSjU93k0nTlq4yS+y5qWlfFQqU40p0lGXK1BuWj5YpO3uKz2a16W2ck/8AQds9XYhWydpzhgevXjHH07dK7iCXNvkH5yFbp6hAeox3r5k+EHxd8HfGT4beD/ix4H1G21Pwf4+0ey1Tw/cQMJGgkuIkee2uMAFLi3l8yC4jb7k8cm0eX5bN9AWErGJd7ndsQt97G7aucDtznFdNGv7SPNZ2kk0m2nG6vZp3tJbNdHoea1b0e3X8e62fZnVb29f0H+FWE+8Px/kaoxMGjTBzhVB69QBnrV5PvD8f5GuoRNRRRQAUUUUAFFFFABRRRQAUUUUAFFFFABRRRQAUUUUAFFFFABRRRQAUUUUAFFFFABRRRQAUUUUAFFFBIHJoAKKKKACikBB6Um5fX9D/AIUWfYTaVrtK+12lf0IaKCcDJ6f5FFK67r70ZKUns7+iT/QKKCQOTSBgeh/nTGpTe136K/6C0Uf5/wA/lRQP952l/wCA/wDALFFIGBOAf0NBIHU0Gj0309RaKbvX1/Q/4Ub19f0P+FOzeyb+RPNFbyivmv8AMhooprNtUtjOO2QO/qeB+NFn2f3MTnBJtzjor/EunzISrk/MoK5/vOT+A3EZ7ZyeOfal2RZ5Ug/WTHT8B/n1rkNS+Ivg7RS41fxFoullDhhdatAp/FSeD04zu6gjIrzDW/2ovgnoxZJviR4fMq5zDBOZ349GWJgSOOMnJPYA4tUqrtanN3dl7r127rzPm8dxfwnlnN/aOfZTgnBNzWJzLCUJLl3XJVqxm2uyTf3M+hR0GKbuUd/0P+FfGmo/tt/B2yLf2fP4n8VbQfm8P+GNWkjZv4kSe+tbCFgvI3o7ITyrlcZ831X9uu1csPDnwk8VXgOQs2tarYaMi9cM8TrcSFR3VWUjOc9q0jha8tqU7dW4vlXrJJpW3euh8lmXjZ4XZVTjUxXF+VuM3JJYepLFz9zl5vdwkcQ1ZSVublv0btK36GC5B6LnH+16/wDAfaofPGCSuMYxzweeeccevTmvyn179u3xkoY2mifC/wANxruJHibxVFdXMYB52xqYt74AG1V9R14HhniP9vHxdLvS4+KfhrSFO4eR4T8Iza0SP7kN35Mio3A2Su4UEAknvtDAVpct7JNpN2bte29+Xvv8PmfnWc/Su8Kcsajgsfjs5naV44bDUsMm4pWivrdajVbe2lLTTms2kfuD9rYNjcODjoB+eFyPzzWPqXjDRdIiEl/qumWSEkE3l20C5G3IJaBwMZBKgn8ea/ng1/8Aa0v9dLLN4++KGssSSEi1CDw9Zuc/xRWzo6xsCQV2M3AGBjA4if4keJNbYNY+BLjxA/JSa/1O+12TP99kLspOevXdzkkHj0oZJZXlioLZ/BF8vV3XtGm1218mfm+afTPwd2uGuA8fj6tPmU6mPrV3Bczj7PkjgcLUsp8tTmTqNvljyaqSP368Q/tQfBjQFdb74h6C8qZAttIa41ad2z9wPZRsA4A6ED0IFeMax+3Z4FsRInhzwz4r8Tv0WVoI9PtWA7+ZqIVlBJwSVHyg8dMfldo/ws/at8XskeifDO98M28xwJrjRItFVFI+80uoxowA5yeoznPBx6xpP/BPv9obxaI5fFHjnTdEilO6SIak+pSoTyQYLGRUJI4KFscgnANXHA4CmrVsXFtPRR9nDa3RuTdvL7zwK3j59Ijil+z4Z8N8TldOvaNKtTyTHJR5/hk8RnkadKKT/wCXtuS3vJ2sj2Pxl+3p8RfLnHh7SPCfhWBs4m1W8i12/iHUbYoMR+YPvBT8vJxgYFfF/jf9sP4g63JMmqeN/Fmts5wbLwvbnw/ADgZCSQqWZRxwc8Dr3r7r8I/8Ew/h5Y+Xc+O/GfiDxPcx7WNnphGh2szjtIGnLMjcE5YMeuc9PrPwZ+y/8FvAyRDR/htpdu0WMX2qSDWpZlXHzSLO8i7icZIcc/Nk54J1MnpRa1qb3spaNdWlZa20t80t3kvCn6TviEnPirjhcK4eq1OdGriYYzlpy1a9hl0JUZcsbJ01NReqvZcy/BzRW+JXxJv5H8M/DrV72efa7X+p3U2pahPuJAad79bi1DHg5ES8k5Ir6O8O/sLftHeNFjl8Ta1/wgmjMEcwHxAI50XJLqLTQz5cTnnapjjBb7xz8w/cuyj0vTIEtdPtYLS3jGyOG0gitIEXoAsduA6r2VWAGMD7o4bcTblYRABTn+LaDk8krgMTk8Fmz7cmvMhmihKawVP2CT95ygnzq7cb82qcbS6fa0aPsMm+hvw0+WtxrxhxBxdi5cv1inTlVyrL6nLulGliHiKkHq0puFlKacWptL81/hr/AME6fgr4L+z6j4tfUfiNrYbzZ59WBFn555ZmjEjXNyd4VhI8ih1+/EBkr9laR4d0DwTZJp3hrRdL8O6dGiqkOjwRWDlEBVd4jzuOGKkudzA46dPQDHgksxAORhMqMHPGRz1ya5rUUsiGAyTjBySc88dT7dR3xXPUxeJqtudeo77rnaW7drJpWu9j+geEvBzw04Jo0afDnCWWYKpShye39hTq16kny3qTrTp+1nUco8zlOcm27vXU5S+1NCzySSOVQE5dsk4GAScfMSeOSTnB5xXjXifUA8Mt27khCwVW6kc8DHfqOvTPJ6nrNcu8P9lUkFWyzdiBngcbuQCecYz6kV5B4svCyCNM7F4b3JBJ4+g6gcknrmsXJvr8l/X5n6XRwdKkklSja6aXKtLNvTSy+XroePeJ/EDOHjD7GDEqpOdpz1xwCOnHr3r528aLoXj/AMM6l4f8QWSXmmanbTW9/BMnmbQ8ZjF/GCpJZCFSMKPMAVLtA8kRiPpPjWOR/NZQcFmwOxJ5/Tt/nPh8t2sIdDleFU5JXKrgKDz0A4HXFebiKXOpRu43TSe9vO2nS3U9KPJCpGpGKUoJJPRPpdXSvZtbK192fynf8FBv2bvCPwk8U6Y3xB+Ed18WPCV14n8Ovfy+FbjS9J13StM1y6eztr7Q5dUmjjvLi/v1bRLlA5KPHHbkBtRjkg/bn9nf9rn4S/AP9nz9lX9mf/gnb4H+Hvw/+O/xR0C1uvjv8a/Gvw9HjBPhR4On0t5v+FweF/GN7eHwf4it7XUbK4gTTPEk08M4F1Mukb7Bln3f2vPhRovxZ+GesadqWnJqxt7bUWu9LmTzLbV/DdyiDxBp1xEFEjKtukN6WWWNksrTUIYf391Gy/yh/tP+F/ih8Kf2WviBA3xR8Q6DeeE/Hg8HXWl3H+lD4mfDDxZqdgmlWkXl4bw5rSXrFfiBpKEaZ4gGntlfmYNw0vdpUaK96cHUtJO0pqbg2rK7skraOW97Kx0JpyTnaUVJSalqnZ9b3W29+m+h+tdp+2h8EAfjd+yX8WP+Fm/Ej4Tadrz6/wCGfiX4N0vU9UuPg3rGlRm90X4l+MPHdr9nuPDPjX4h6te3mv8AjdNPurjUb3WNX07/AIReQw3asP5UPih8XP8AhOviX4p8WSwXer3EviGa2tdQ1G3sNM1vW9M0yWWzs9Z8dW2mW1pBqvjfxFbsmqeOdYaOaDW9dlk1BBHem7kk+qPF958U/gZ8Ifgb8ONQ1e38SfG74gaH4a8RfBz4S+EmtbfQPhJ4e8XC9trXxb4/8C2WmadY+Jvjp46bULRfDWp+MT4gGj6FNHqBt5NXi8NTeGvhrw14VksVa4uMtNMzW0zEZLSykk/N1JGTzycgHHINfT5TejCtNz51P2XxNpR5VU05m5XvzX6Wtro1by8ww+FrYh1cLS9lGaSajL2qfLZ7pRs7ud0m9ZO7djU1CTVdUw7akt2XCnT/AAumUSJX2sUCg8Iud23OOAeBkjrPA/wg+KHi+x8YXPhT4deN/Gh8OaLb6lrJ8HeD/FHiiTwzZx740utROg2Wo2umW908cscU+s2rW0jW0ixEtFLX7N/8E0/+CPfjH9tnTvgf8edbjf4i/skat+0J/wAKV/ads/gN4wtLv9pT4Do1mbnS/E/ijwpN4e1B7XwfdarrGjahDqHhxtfvrbw5nzdNm+wF7n9iNd/aR/ZQ/wCCbGl/E/8AZ78c+NvgB/wyP8Q/iL4c8eaX8GP2VNA8W/Ez41/GfSvC/wAMbLwpcfEX4jatp3xY8GWln4J/aV8DOdJ13R/EFxceFvh18Z7fxXcJ4JitRcQp9Nh6sYOabj9m7crJJXbu7NX5ZKSTtdbtJpvy/YuPVt9rNN2atpfX/g3S2Pw3+Lv/AARx1/4W+G/jhpXhn9qD4PfEX9qn9k/4PaP8d/2uf2RtD8PePdH8bfCDwFe+H/D+r+OovCvjvWLFvhh8Z7v4TWfjXRZPiPpOgavDNFtSLQ5dUmkBb4x+GujQab4M8YeLBZazqfheD4kfDWLX/Fdh4VluNHsdPt9Zu7vSdE8XThNQtfCD+JLaHUdc0CHUWddYTw7vhkQRsF+jv2tf+CoX7RX7ROkfHTwj4E0j4e/s+/Bf48+I7ez8S6H4N8MeB9J+NHjD4K+DomPw3+Fnxd/aDs9PsvGXxT0Xwj4a0Xw+JNFv9Vu01yW3RruOC2a4gm+RfBn7UX7QnwX+DXxA+E/wv+ME3hj4a/EXV7a88f8Ag2w0HQ9Rs/iHq2k6lo+t6LquoyXmhay+r6npt1ZXN54c1u/W5n0i3XxHcWSxud0WWY0XXVJe0so8+yT5rqnurxSacW9b76WtYcFdSXXT0VtHbTb8Hd66nc/tl/AT4p/sd/HOyi1zxD4R8ZWWs6fJ4/8Ah54u8EePNL8fw3/gfV5EuPDV+b+0tI4bC5ksfGQtbjT9StpmvYUlnlgNu8DH+oL/AIIo/wDBffSPhF+yBL+zj+0o0V54i/Zy0oN8GPF99rlloWneJvhCM32keFdW8ZyajLNp2v8Age4s7mBdJaOK71TwowhkmgWNGi/iasLvXNWvrq41OfV76f7NEuovduZ3RMRusUfmcRxKyIVijVIkMabUXYoCTeLNQltLfRtNZk0vV/GT+Izphwf+JkRjTdT92CneBkBgMcHp87j8pWMwkvf96E6cqcvZ3cXKVn9rVON4yV7Xab1ij0MFN0qrlf3XFqUdubRta9GrWv1TtY/VT9tH9s/whp37YHib4p/sb/FDWJ/AVvrtj4vbxr4GsPF3wK1m71nxLrXibxb8Svh74P1pmi8WaX4Skv8Axff6RH4kD+F7nXtLkWVtGECWfl/mD4s1+TXdR1fUI3m0Sx8T6kt7eeHI7rVtRstDsbL+0pdLbW7i51PVtY16ZDqxOnazrLSSu2+QudzAYBGqabqrJYKA8jAvHgMC5B6nADcKxU9GC5GQMV2k0+o21jbXmmjSLDTptO/4Ry30O5l0i68SQWVjquoeKoJ3tbMJeajYLMGt59ZufKEBjewZHNsWfPDYGOCjGF/aRqJSUnDl5ZRjG6b5m25XbTVkuW29rd1LEKtKaaUHFp/E2mm2m9lZLTe+9+h/R3/wT9/4K6/tRfD39lLSP2RvhT8PPgL4j+NnwxvLOP4KftB/HzxAtoPhr8Mtc1TTdLu2uPCN1Zbb2P4SlhFoHimXxFJdaDoMEqx+Hri3sbaKt7WNI+L3w/8A23NBi/4KvXvwv/ap8ZfH/wACarq/7OnxI1f4wXPif9mzwH4w1/wrp9j4j1jxVonhPxJ4Z0LULzUf7e07QPEYu7pPC/g+TVNG8YSA6PPczV/Ovonh+4060v8AWLP4jadpklrdN4dh1jwzLqviG6hE2ii9knuLfTGjvLnSbuW8/wCEauLmafbH4hnjjmWd4Tu+/fiZ+0p+0/8Ath/Dz4T/ALE3w70J/i4PB2h/278NtL+G+m+GP7T+Gf8AwlOl6ZYfErTPHHjbTvDZ1QaX/Zq6n4Zc+JvHB0zwzpn9lpqZBZVPWouEdb2Tdm1ay6JvbS9l5Wvd6vKpbnfLto7edtT9Jfg3qHxU+Fvxh1z4SfCD4h+EP2i/GH7Lmm+Jvizp3i/4V/ETSfiX4J07RtftYPA3jj4d+JPG8t3Hca/ZfG7T7/wT8HPiBpOi2/irwV4R8c/CjRPiPo3ifTXvjLZ/vz8JPH2l/HP4e+E/iv4A1V30X4gWNj4g8JyL5qX1rqMF9Joev+GdVIMc9h42+HHjHTNS8HeM7WRVeHV7EGMbRI1fzwfsu/8ABGP4pWd7pXj348fFpfAup22jT6BafDL4ZF/E13J4U1IL9v0Hxp8R9I8R6FoMsl0cyzz+FdS8QTW91Fkkuysn6qfs7Wvi/wDZ6+JvinwN8RBoNr4C+LfxG0q60WWWZrnwDF8S7uDSPDXh7x84ntdJu9D8NftN6Xo0XgXx1pN/qXnaN8aPDXhrVVW6fxUyxeZj6cnCNSnP4HJNResVJxtLR391r5XbbSTOvAOm6rpTS/euCi2r2ab0XbmTet1tbdo9W/4KBfB9/wBov4Qabe6fbeIPEWpePvji/g/xz8GpNPhj8H+CP2g/jdYaZ4Q0H4m+Antbi38SeF/B37Rd/psOmeM/DN7c3HhCPx5d3XjS2+yaxFNBcfzAfAL4S+JdX/aB139kr4mW3xAn8BfDb4H/ABytNf0CfVFn8RXHhTwh4y03xL4gt/A3hDxHayaR4d+KfhAaFquja5p0lz5miR+GfFcTBo7Ob7X/AGsz+G/Dw1XT9WvzpfiHwrrFlq+jfHnw74n8RyeE/DUPwu8Ra3p8z23jvxXd6tptp8L/ABZ8Kb22h8Qab4mg1rS7jSfFmnSQ6a8Fto0FrH/K5/wVX8OePPBHxli/bW+CPjjxL8f5vgdfeEviBqv7VmlabpNpoXxh+Fnxi8Q65ovwd+LHio+E4tP0PVdal1f4f+Iv2ffjPKUbSvHFzb+F/E0um2dv4vhEueFryxFHlnzOrRXJJavmjb3Jx6WlFapbNNN3i7aY/L5YJwnJudKo73ceWydnyt8zu3qr6bLuj9jfg74c/Yu+H3wnvLb4Gfs+eBdKtPHeg+HodL8eS6LaQeK7LTNOurXVtN8TaBqwk1LV7P4i292khsvERNo6a/CtjDboEdW/n1/aJ1D4qeCv2hfG2oftH/H3wZ8QfGvxu8bXd3bZ0uw0Txbqi6xaR2vg34geKtG0DwHoHww1DRfiBoWkfYNbv/BN2r6f4+tZZPF66fqrSm+91/4JnftV+FPiPa6T4K+K3ivTvA/hq81Qalfa9NpdpaaR4HudOm1nWr/w9p7Nd6fHofhe50qJD4Um1HU7hG+yy2jMt2l1Hb/VH/BTTxh+xB4++FWjaX8I/Bg/aP8Air4C1ndZ/FHxRNq2hfDWLQvF0iaZ42+E3hvxDYf2Pcf21qYktLzTvHuk3knhPwZ4pZVvBILpC3hUKGMwma4ivCMqlPEOleLTUVye0atKXMre/Z2StbZt2Pex2IyCGV4GlhoOtiHQ9rWlG0ZQnXS9ySvJycfZtcyattZX1/PJNOvtPjvbzXTplhei8A3RNeLAMqBuQ3eUCMAGBQnTdp+UngnzLxT8b/Buk65pnhzwbIPiF8RJrfWTHpOg3lpaJZw6ZpF3repS3d5eGKBFjsdNuXdNixq1sVVpAwI/NLxV8evit430GPw/cX1x4e8MWYn0iIi9Ed9qc1mY/M0jVNfWNZ9Tv41mtWjgzGwMsalsgl+c0TW/DkUOnaF4o0fTY/Dtzc6Rb+INZit4YfE+n6Lp961zcroNpIk/lFhM1/qDwFbm9t9PaNpclNv6LQpctBVHPWXs6rilqvZ+9a91fm5lrZJPXU+WjNSd4ppJqya130Wi301dl3P0V+APwn+Nv7cvxFv9U+A3wdttRu3trDStVufDvh+y0bwR4Ukk1C+W51fxh4r1qPUtG0nV9ato/wC0b68eGUyzRSSCFUZjF/RR+xR+xH8P/htrep6X8Yre48RftGfDq80fwl8VfBVzHj4dfDifxBa6brXgrWNI1KxuftPj7T/iR4XvpNR0fxJcXNtiVtOe6nEkjy3HtH/BNv42eD/HnwW8NeAtE0/w7oXiX4JafpHgk6d4M0FPCnw+8W6RpmgaRaeFfjV4f8P2ziJYfidoGy7123jldG8UWWrSNdyuskafUXx48PTJJpX7R/hTRJ7n4i/BXwtqfh34neG9JgnvJPjF+y+93b6rqsFpps0d2uqfEv4AarH/AMJ/4AeNTf6j4Sl8a+Ebe1ktp4WtfzziPjSF6mX4ChVhjaMb1alWSSoe0dqaVPlmqkp+ynzJzg6dotqTlp9PluSUMdCdTF1FS9nySgrJyUZ8zk7upBXaitNbK12m2l+p/wCyZ8VLjwlqWm6Xd/2ZB4YRNK8J+InsrG10y1gdDLa+FvFL2VoBDAbGZI9FvLo+c8llcI16tzcrFcx/rN4fuHIRrmXeJFDRsGJRw21kZegwy4IwBkFR7V/O78LvGXh0nTvFd9428NaH8Mr6xs7jVtf+0Q6zf+PPDuo28VyNL8J6dZXCSTvfWM0/mapPPBGJrGWWGGZWieX9Zf2Rf2jfBPxg0bxB4P8ADuu6jqtz4A1aGx0SfxMsY17VPAV5HbT6NqE8ieUrzaO815pV7bCHzkawF1I6C8SOLzOE62KjCvDMXUnXxWIqVqdSpU54vmblyJJKEH714RVnLzaTJzvL8DDD0/7NqKq8Gn9aXLaco1XCKqRV7yjSlBqVuZpScm/dk396pJHgBS2McZyePxP+elakM24/KGzjJyOPTHr644GQDXPxBAAPNJxx1xn/AA6//XrUtyoYAMTkY5x1P9D7d8epz9sfJmt1oo60uD6H8jQBIrZ4PXsfX/P+fd9V6lVs8Hr2Pr9f8/8A1wB9FFFABRRRQAUUUUAFFFFABRRRQAUUUUAFFFFABRRRQAUUUUAFFFNf7p/D+YoB7PqOpMj1H5ivO/iB8QdC+HWlRavrv2gQTSNFH9mj81yyBCw25xyHAHrz6V4h/wANffDw9LDxM3pjSjz9K3pYetX5vYw5+W3N9m3N8Pda2fXo3tqfNZzxhw5w/Xhhs4zXDYCvUpKrGFefI3F7uN7XUdLtfzLTU+st6+v6H/CguoBOegz0P+FfG1x+2P4SDOLXwX46uyDhZP7OsoIJOwKSPdliDjqYwR3GeK5HVv2yFtkEth8PdXkLMQF1fXdN0WMAYwFme1ugxOT8oAxxlvm466eU46pzfuuXlSerTve/p28z5THeM/hrl6g6/E2Fn7RVOVYWFfFW9ny8yqOlRkqd+dct3aVpcraiz7rM6ZwOeM9xx+VTV+at3+2h4vlBNn4Q8K6OGzhtW8XabfBeQAW+yTW7NwOcKv5GuTu/2xviHIGC678NdPPIJt4r68dPQg/aJYyfxGee/FH9m4uSv7JRs316aau6X4XXnvb5LHfSU8LcG0lm1es5c3L7LC13fltdpTpwta630be9tT9TFaRevzD0JB/I5yP1HtVluh+YL0+Y4wOffjnpX4r63+1P4zu2YXnxllswWJeLSNI0FI8A/OsbzhZVU4IRgobAA+YjA8r1v9o9LsOIfGnjvxLIFbckOqzWUTMchwY9MjeNwScBQ2OnI4NaRymtLeUY6ddddNNLba3draaHxuL+lXwlCU1lmRZ3mlvhnfDYSk73t78J4yWvS8FLTSLbsv3iuNZtNO3C5u7aLGSfPniTGTk8u64Hrk8YPvnktQ+Lnw500OL/AMaeHLN1zvE+qWsbIRgsGEjqCyjOVUk56Ka/BW2+IGv63Kzad4U1O7ZjkS6rd6ndvnP3sXE6sx5+7tO7HQAkDqbPS/i1qgJsPhzfzMxyDa+D2vlB4IJklcqVPqe2SeK0jldGNvrGLjTu0lFU3NzV/eSSmrNXS879D5vEfSpzmvNRyPw6zDExu1N1JYqq4OVvYuX/AAnU4JStPVOUZW3SWv6+3/7TXwf09mB8faXqBGR5enstw2epC7IZEY9yAehGMgmuOvP2v/hZbn9wniK/HQGx0Izh8YxhktMlTkc5GcZOBk1+cFp8Gf2m9UOIvAn2BG5Dy2Wm2YAPfbkMuO684OR246W1/ZF/aa1gB5L6y0ncPmRtTtLYjOeD5cnboSqk+mMnGn1HLadnOdSdlvGna7W7t7R26O2nXc563jH9ILNP+RR4eRwymlyLEYKel7OK/eQprZLVrq23a1/s+f8AbL8Kxktp/grxnN/da6+xWqnOeSJ7tyuRzgqMA8KAMHn7v9tm9XK2Hw2u5Oytea7p9tj0LbLeUD8+c84wMfPlt+wF8YbjadU8faFCW/1j213f3JOOGIWayhQkjqd2MnIwRW9B/wAE5tUuAo1b4q3MI6uLXSDcAe6ldRtyT2+Yc5PAqovLI2SpVXtvFJdN3zP5u7/BnM89+lbmMlbJ8Bgee1uanldPlTs7e+la3NfVXsu9zvrv9tLxoC2zwr4a05eu288QwSsgxnDGKNGyD1+6eMDrmuTvf23fG8YYi5+HGn4yWNzf3UpUY6ny50BxjGCfXjJFa1n/AME1/AXynUviL4mvW43BNIjtg/r/AKy9nKjJOMkkAjOec9LD/wAE1vgRtxfXni++b+JhNawhunJBicgkjkjOc8juKdfLldfV7J31cV1sr2Sb3ttr10dztjw79KLMLKtmWFwfNb3o5hhIct7b+xT5UtXo27Lo9D5wv/2//EZJCfE34fQtk5W2sDOFJ+6FaUSbuPX05yea5G+/by8Yvyvxh8NxDJ5tfDOnTEZ7L5towJxnAbOMKe/P2tZ/8E5/2a7QgtpGr3WM5F3qeM+zCC1HP0bPXkZOOtsv2C/2aLUDPgO1ux/08a1qwyDnr5TxYyTz0I55xxWEp4RawpK172aqPW6tb8vW2mjNo+GH0g8Zri+O6FBt3aWYY6Vr2b0pRinbTbTpfofmld/tx+LpSfN+MurPyedN0Owtc+u0Q2sYAJ5AXA5GfSuZu/2zdemDF/iv8VZjnlNNea2JA252rEqE5PIxj0JA6/r9Y/sXfs1afhovhn4ewMkrNdajdjjPUTXOWHsQOMjkcHqLX9mz4BaftFt8LPBbbcYMuiRXJ797hzjHHIOaPruGW2Hhp/07l3Xr20vtZJFvwU8esTdf8RJpxjs2sfmrtFrVtO0naNrq/wBnW2rPwzuv2tNZvVIOt/G3WB0Pn61qNiGIIxlxKo54JwCSc88Vy118b/EniMlV8MePb0HIC6n4kvr7f/v/AL4n5uNwAyDgAZr+hy0+EfwmsQosvh54SttvC/Z9IsoDjpgHDFR6DnAAAPeuos9E8P6SmNP0XS7JRwFgtguRz8oEKKpwPUYx04wAfXqFl/s8b6X/AHb38238r3fzM6f0afE3Ft/2n4sVKcZa1HSo47FtX1laNTHUOa2rWvvOztdu383NkvxS191/sj4N6vKXPyyPb69qYbefvFplZDx06gHBIx930rSPg3+1BqyhtM+F8tmCAV+0aWbXAORz9og3EYyT0JG4+5/oLhulkOxbV4j2x5tgTxgcuo4P8xgelSSSSfwQeYM8kaitxjOAMguMd8cZPI6AUf2glbloxjZO1r26WVrrbW+mvkma0fokYKo08/8AEHiLP+ZrnjQwlDLbttKVnU+s2V7tNtuy5vePw+0j9jX9rXxCqNJe6T4XRz+8Rb6G1dUJySVW2kYkYwQEIPRR0x3Fr/wTd+KOqlT4t+MRQHBkjtZtTv2OeWTbFcWK9T08ojsR3H7IwJwC425HIDnjjpwGOR0PBBP5hp4JHoaHjastVyK6tonp9zWvyufVYb6JnhRh/q0sXhM8zGcOa7xeb4mnGSn7NyU4YGWFhJPltrdRu+WyZ+W/h3/gl/8ADmJ438TeL/EGryBgXjOmQRxuwwPv6s1wwB/vAE4PIPNe4aN+wP8AADw9sLaDqWpFCCBcambZWxx80ejraIc4OVbg9zzmvtcjIwehoAA4FZSr1ZWvLZJaLt1V72er28ux+i5R4AeEeTKDwnBWT1ZLlanmFCeYTTVmuWeJqSktVd3k27LXR38A0D9nL4D+GAg0b4T+FYXQgCW6sRfSg5HzCS9a4cP0+cNkc17Jp+kaRpkCW2m2NppsCAKlvY20cEcY6bFCqFVcHB2gZGAeBxpEA8HmoVABAHqP51zVsRUgkrzlzJr45K1kktLPv5bH32D4X4cyRQWWZFlWC0aSweBoYdRUbWtyQbW7trp5tsTaqkhfugnBxgkZOCcYpckdCRSUVxyfM25attvXXf19T14pQ+BKH+Fcv5WIJRvY7/m6dSfQelZ5dwjKGIBHIz2Hb29OK0X+8fw/kKzG6H6H+VIb1319dfzKy/fZu+c5/wB7Of51TuGKnOSAD7+p9KuD7zf8B/lVC6IIOCDz/U0rJbJIDJnucZUEdGyfmznn6cjHWuZu5BtYnHQDBUn2HGRnuDyPqOtXpZHLPw3f+I85yfx61lzq7hhgkHg/MRwfcA85Pb3z6UwPLdZRftMjhACd3IB7N2Jf6DJH4npXkuvQlzN8hycnp16YH3j1wAO/OcDpXu2pWPmMxO7v3wQemT8uOmePTt3rzzVNHZ9x2k84zzt/9AA4B9veg6Yy6rbqv66/1sfLPiKw3iQmM7SGzkDjgE456cgjI68dMZ+cvEOlmNpcKyjLEnB65JwOuR7DkDHfGfufWfDqsJMryATjBGDznGAOoA445+mB4J4n8MKrOfLBzngA45z1B4BPOOmOh45GNSN277Pb8vvNIzu7Wt26nxzqYjBeOQAqC6FWG8bW2qynIIIZSQRjBBIIxxX4R/8ABTT9k7VdQ8DfE3R/h/o41OH4haFJdeHWKgBPFOjNofibSNGUltrObmwll8FLkB/OTH3lJ/oV1nw+kOpuZF2qshLAjgj8eMZPJGSeOAc1518QPA1h428NaroGrr/xT8ttIzzr809tJGwljkgJywudMuA+oWvUSW76hBJ5jLZ29cnsvac0qdliYRbw8pawva9SEouybqRSSbulZLVux2qDlZOMrS6pPZ7tO3Z7n8BHws8A/tI/8FJ/2mNf/sj4aeLfiX8YNatvCGkzaL8LPBqW1j4ej8M2Npodvqev3KXdnpvg/SLW28NrDqOuarqKQvq95GY0/fsIf6zf2Nf+DZX4TaNpFvrH7bevw+LrrUNPiC/BD4Sa3NpVp4fYhZli8ffGFVh17XtWsVZftVj4XTQ/DcN1FNc2UeoW8hdr/wCyn4yuP+CaX7aniG28c2Vnof7Nf7bXinwx8LvixqtjbWSab8Nf2l7eXVbz4QfFIausLzjwP8U4b3WfD/i3yITo3h/xvc3c0zQtZabbxf0l/Gr42/B/9mbwLrPxM+PXxG8J/CLwPpc80M3ib4gazaaFY3tzAsW+y0a2L3Gu+JNVlE8YttG8NaLrOqzlgFtAGUt+HeJPE/GH1/B5Tk98BDEKv7Olg1KFTESp+wjOM66XNBQm7pWTbm3ezXN+l8LZVkkcKp4zD069SajbnSfJe8pWUnJS5r9LP3dLp6fwD/tfeA/2q/8AgjH+0T8evgJ8FviH458N/Bb4+eG/Cl9oOt6FrVz4auviD8JfBut3mveDftPizRvs99ofxc+EniYyaW/jzw9d2XiqSSK4E8tzH4klgb8F7rW59XcJqthN4j17WL7U2sbvULSTUbp95MzK8NuHuLjMsjyO0jF5HeSZ1LuxP9I//Bbb/gr98Bv289K8BfBv4EfCLXbrwr8MfiDqfiGy+N3jyztPD3inxHJrWk6votvo/wAPfCzW91qWgeB/EU9wNd1y714nxFqknlSXGk6A8dnKn8zmp6lqQk+wlf7Kk0o8EcvHqgyCA45JByMjqRggda/W+Bc34hqZLhocR0YLGU6dJRlGco1ZxSTk6snF80lFU3KSUVzSldaI+E4kwOWUsyrf2ZOUYNylUpuPuxl05Fdcqb59LtJJWst82VtVvw0eph9QGksUELELpulY+TYdL+XUFCj5CAAAMKPlGK6Xw1IDepf6Zs07UtJsNR1LTSFZV/s3S9LP9pHnTDy2CRuwTyOu4DvPCfg3xAijUr/wtN4h099a0bw9rGiyyalBHeav4j0tbzRtMkm02N5p7m7stUtdRiiAQNlYA292aL9Xv2X/APgip8evi74v1Zvj/Z+L/wBhzwjp3wsbxx4f/wCFjfD/AE2LxX8WbnwtcaTpXjfwj8N9P+K3xC+GPhK/8ZabZ3t14u8W6bqniWzh0Kz3pFpVnaPZwL+lUsXGqlGUGtI29/mbvpu1HXZXu731Pk50HG/vX1d7R5dfk3a7+4/HG11Gy0BrQ6rpy+JdMlTThxqOor/Zmmkf2lxqWmYLdTxnI69RX2P4F/Z91TXvgt8Tf2hNU+DPxPn+FzfEI6XpnxQ8J+AdU8SeBvCzPFc+KNS8JXV0Vu9G0zxHc2mqWtnpJ124hhn0+1sHtGUmdT+lP7UX7Hnw3/4J3aV+xz+114a+HNims/Drxb4b8KftD/s+/Ejxt4P+IN/47+Ieqaf4i8d/s8ftK/D3QtJ1vVdC8Zfs8ftB+CNHfxHqvhKx13WfDPw78a6J4q+HyzXb2q3cn5zeNf28v2gfGuieO/CHwkj1L4JfCP4h+JvEniHxN8Ifh14q8VpoeqXevT6pkXqGfUmjtNKt9Wmt/DunH7Rb6DCn2e3Eqnia+KjRUE6d+fq5qNrNW15Gnd6769tdSMeVWPnX4p/Dnwh4Hn8OWOl+JdXh8W6d4buNV8f2Esgv9Z0Xxivh3Vr7ULO109UgEuhC7k0jR2lUothMviRWWU2eTN4P0HxLbfETwn4c+Hul33iPUNUm0G50fwd4c02y1z4ia3rmu+Gm0y+TRtN0uG41DZ/ZdwhKXcbRNPIJ0xITXvP7EP7OPi79of4x6Z8Pmmcalq1p4U8NaDqOtGbUpvA/h7xBqJ8UX3j3TXzBb35stE8P65oOhjUIblrjXfE1nJBDFJaG5t/6uf2Vv2Qvgr+yn4avNJ+Ffh2bU/FV/Y20/jT4reJoo5vG/jC9M1wrjVNUdZn0bSY2QLaaRp7QaaQgc28k6ZXgxWMjCNJqEZq0nZTVk1GOmkezavZdUtDaDaaVmuZpJ7aN/j0Pye/ZX/4Ix+ONV0y08T/tV6jL8GPAms6lHdP8DfBeoW3/AAsPxVbsRIt94q8XZgHgiGZHSU2Wnhku2NxY3lssw3J++fgb4ffCr4E+DNO+HHwx8P8Ag74QeC4400e20e2lS3t9akTJ06LVNcx9s1/UpS7NLfs8pG7yo4dkcDjB+IHxl8N/CvTtO1DxLFrPiLXvEF9DpPhHwZ4bt31zxR4r1NCHez0Wz3o00VoksT3k3KWyTwsUYPgeE/FC58YeKdGHiX9pnUdH+A/wlj26/wCHfh/ZRvqnxU8V20nlGymtIZFSE3KLbrPJp8SvJb/aDBKEdWrwo5hVxftFNewjCySUnZ83Mr3ai21yrdtXeiXXu+oznFP2klzK9lSbSuk/57vdb/I+44l0saYkeltpuprwBqnhh21XTGUY5VjgkNzh+GYckdh5P8Ufht4c8XeHddtfEnw+tviVqieE9e0+w8N3GuX/AIcuPEOkX0EGsaz4O0u7F9p+g2Wu+IJtB0qTw5qniC4KaD4i0vTdU0eL+2I7aaL5x+BXjrRvhba+APCeifCTxF8Ofgh431XUD4X1LXePHGp+OPHHzDxL4m00kt4Z/wCEmbgkkIQecDO77v1RgSjAlj8xVidzYUEKd3OSu4YOfpXLUnOF4uTtLdNu6V1o1drZvX7u7cKc6T5k9VZxdraq9uvR2f6n8/37U+vaJ4Nvl0b9tD9ovxr8etU8OWcGsaV+zjqU174f0/T7fyF1JfEnxe+FemazBp3ibxTo9neQDxL8QviDrPhLSbi+WadI9eEsMs35dftPf8FDPj9+0b4SX4O6T4vsvhV+zt4hvPD3gCX4YWep6XZeJPFWg2Grxav4DtPH8Fjp1g2n+C/Dutaal3ovhTT7O08G+HFtpNPLS63brd3363/tsf8ABKf43fH74t+IPiH+yr4V07xr/wALC8M6744/aK8FwXfhPQvFWq6n4DgbWxrfg+LxNqFjaeJU1/Eeo6t4Rt7+yvptW0e1ksGm3oh/D/4Qfsj2nxek0zxR4q1Kx02DXA+qabo0+oFXi0ayUK2oeLvGeT5VxdRKkdra+GzJ/Z+nxxQl3mklWL08tpqm6klZt+z3ik7Jy6636vbc8zNMyxsoxpV6vPTblyWjZ2XLo7yd9LXb/No8p/ZX8Q+M/Cl18a/g2PCOo+PvAnxf8Kto/ibTPDOk2mqS+F/EvgfUrrUPA3xE0z+0Zhp1rL4V16S7mlgu5IYtd8P6nfWCSx3Go2iD9Z/D2u+FfBnw80yzuvD/AI1+I/xt1DwzN4J1P4p/FrVDbx+FNDubnTb3XdH+Ffwf0LUf+Ed8P3+uyWNoNf8AiF43n8S318Y7Q6JpgkhvinM+FdI8NeCYrK38E2tlbQR6Mmk6vo8unW50kapACFuWtUhtpNTksgUFhqd3LKJVPzxNLE0r9T4j8OC4sBLpqxnVtO/eajqKKCNQ+Y/dHIVcHC8AANwMDB9Spy1VBKCjyXb0T5m3HyjbVKy130218qhiJTct01GEbqVk4xukmlFf8FtvrY+LP2kvh6uvaNpHxB0uPSLjU/h94ft9F1+ws9C8I6ReXfg+HV2ZbnQIdD0SGPXNb0w61qU+v6jq5bUG0jagllAaW2+c/h9+zT8T/jx4lsvA/wAJfBFz4i8R3WkeI9bj8PabMLzWm0zQtEvNa1C5jtjZ2bMBa2ci+XL9nYFgbYXhWRY/1A0RNQsr03trYWD31nesrWGpWFhqCSCx4cahYaiDpzq2TuDZBBGcjBrw+Hwzb/BfU10LwP4n8T+F/HHjn4iW/jnw58RPCZ1izvvBXhOSz1az1DQ7rVZIre1vdZt/EMdrLcro8huNB0XUhcWuoW7Xm5/QpTdNOLTlH3V1VkrRb2e976aabnrU67g21Bttp3UtVa+uz118js/2KvG/i39lP4sfs83HhXx/q/xSs/Gnws8QQ+O/hZqOoRpf/D/xJ4T17U7DxR8PtTtY7SGLw94Z8UeH3tdd+GD3lwwn1pZILY+bIZx/WB4c/at+HXw78I+Cfi9FoS63qMuvW2qaDqvjAJoeiWN3Ihi0vQ/Cnw90NG1j4l+J/EU6XGlaTbSRtC1xDAqrJJJdPJ/PH4Ssf2PvAPxU8ReAPA3iC98S/s9ftNeI/hVJf/Gr4h+B/GNl8Z/2Ub7wOx8Qaj4t/wCKTxqPjq+8CeIL/XfCX/CJ6eb/AEHx3oF/m+vj1r7z/Yw+Ef7TVr478Ran8Lm+GHgPW7i81jw94H/aU1D4can47+Ptz4A1qa4t9GT9nvwL401nW/DH7NGiaxoS22q2r21i2u20Otu9vKZoCkvyuKyfJpY7EYurh6XtsQqSfNFVJS9lz8vvO1mvaWvK2+t2nf16GYYmMFTp1ZRi1azSnZbbyV7LXRu3bc4X4cfEiDQfF/i/4S+OvHWu/DD4UeFfiHq+qva+BP2c/FXjD42PN8R/FGu+O7j4VeBPg1q9/YW/hSDwo9zdaBba5rF5aeD9A042kuj+HHM19G37Ef8ABPj4T/HXUP2npvjX4D8OXPwJ+E97plr4W0j4R6v4g1zxp4v1fwhJcTH/AITj4o6o12fDPhn4halGo1HxD/Zl4mjvBqYtFjN1aQzWn1X+x5/wS++F/wANXmvvHmkSW2v6ywvNR1O/8RzeLPinrcGpym4bUNf+IkjXTaXa39xcTGXTvDwvYjHbsY49LukuwP2V8HeCPDXgPQrTw74H0Sw8P6LpyCOHTLG2jtkDLnfNuCltQuJC7NLeXMk945d8TJE6wJ52Iy+rioLDYRQy+jHEUK7xMYxnXcaPPy06DTj7FT52p35k0o6S5SK8p07SdWVR1VLndnC6912er5tZNa22vrc9OsE1FQu+4VjkdJEAPA7Z749OvHOK7KzkdVUO4Y8g/MMc/Q+vtyc/drgrWWRVUEHIHPyKD0H8ODg55xnt9DXQ2lzICqnOCVUdOM8D+Ef7OecjHrXsJWSV72SV3u/M4jtonYuvzNg56k/3T71rRdPwX+tY1ucmI+qg/mlbMXT8F/kaYEtH+fyoooAKKKKACiiigAooooAKKKKACiiigAooooAKKKKACikyPUfmKMj1H5igBaKTI9R+YoyPUfmKAFrA8SaCniLS5tP/ALQ1TSZnH7jU9FuxZanZvkZe1uWimWNiBht0TgjjHQ1vbh6j86Mj1H5igadmn2dz89vjF+zt8VGt7E+Fvih8SfHNpdXcsereG/FHiHSbjSUtSYDbX9whsdOuZo7aUNFPDbvPK8V1JOzxJbss3zm37J37S982V1zQ7JMnA/tNAuPoJj36YGeO/Br9hLkqxYBuzBsgkAdehHOe/rgA1R2IMEMSQOwA7Y4+XAHtzW1LE18Pd0JcvNy8yte/Le1r7atu3mfjXHHhDwzx1njzrPZZvUxKoUcLFYXMZ4TDwoUW4whGnTozUdJNykne+qSaSPyVt/2J/jpc7TqPjzQYSx+by5mlI55+6W9c988nrWtF+wP44uRjUvifZxhuGMNvLKQO+N6lfQfMMc/iP1V86f0P/fH/ANagzTEEFBjvlDiuz+28W7JS1slpFLWyX81l1/Xy8TC/Rs8K8O4t5dmFdtpyWIzvM5qT6qSjThvfVJpdE7b/AJl2n/BObSWw2pfEzV5mON4trDT1JPcKZEyD6EnPrgnA9E0b/gnx8H9PEZ1XWPFeqSKfmMuoi0jkbByDFa4Xae65xjOMZ4+7vskrYYIo5zwVX35HH+NE0TrweeCM8HOPbHQZIIwM9vWk80xU3702ut9Ot9bax/Xe/S/uYfwG8KsHUpVaHCeCnOEtXiqmJxcW7xs2sTUabdm5OUGm3rfVHzJo37Hv7P2hlMeCbfVHU8S391JdNn+8Q8689O34GvVNG+CPwr0JVGleBPDlqAOC9jFKwz3BKvzznO78eBXoKwSYyA2Af90duoNaqghVB6hQD9QMVDxVabb9rN99Wld36bX9Fbsfb4Pw/wCDcrjT+pcNZFQcVaMqOVYCnONuX/l5HDqd7rW8u9730w7HwvoGnjFppVhbDpiC1jjGOwG3bjH09PQY20gtowFSMKBjhQAOPYHimbpv7i/mP/iqN039xfzH/wAVUSqTlrKcn6tnv0cuwGHVqODw1JWStTo04JJbJKMUv68kVzsySE7nuc49/wD9dGV/u/8AjxptFTzS7v72dMaVOPwwjH/CreXTy0JyAeuT9ST/ADNG0cjHXrye1LRSIu+7+9kAJGcEjPXBxn60/wA2QDbvOOR+fv1/Wo6KDcrYGc9zS0UU7vu/vY+V9n9w3ao7fqf8adRR0rmKSmtm16St+TK/WkCgdB/OgsAcE/oaTevr+h/woIHH5htPIznHv/k0YGQfTp+NFFdAC5PqfzNKWY9TnP0ptFAPXfX1Cim719f0P+FG9fX9D/hQA6iiihpPdJ+omk90n6kDdT9T/OkpW6n6n+dJQMhf7x/D+QqoRkEeoI/MYq2/3j+H8hVWgDJkByccZ6fhWZcKzA5PUHnA6EHn8M/1rbeMrww4PQjpn+YP1HPPUVSkizn/ADn3Hof8/WJRvqt+q7/8H8/XfOUb6rfqu/8Awfz9d+XkhwTleT35we+Qfx/ocYqB4flPy/r7j3ro3gBzkZz2Pf8APg9jmoGtlII2/kuP1H/1x7GsjM87vLRmd8DIJz0wM4Oeh74xk4BJA5INc/daeSpynfuOOD04GM5zgHGRyCc5r0y6ssSBSOeDjHPJx0z1zyME5x1B5rOl08n5SvOQMEHqcYz1Ppj15J55oNINbd3p/keB6zpJO4AHAJOcHnJGB2B/oPyrxnxDox2zkox6k4AxgZxk+uGOee3A4zX1rqukklsJnO5uV6HBOAB1BHA9c44zz5TrOiB1l+TgEZXrjnGevHOevH1BArOp0+f6HTCSildr4rpN72t6fgfCPibww8rTyhSNrEngc/e59OeMgY56nOAfKG09mingYEgM4x1zkFWBIHA25HvyBk8j7a8S+HBFFMvkgM27kju2cdejAnHOAeRntXzVruktYyTSCMlQSWGMbR1GeDj5c4/AZwM1glaalFpNO8krPW2j8npqrarz1PRp11FJSt0tzLV25e+tkklpda+lvzk/bB/Z98OfGb4ceJ9G8Tacb/Q7/wAK3egeNfD0P7u/1bwYxLWd7pk+9Hh13wxqEVlr2lXKywkXdnpnnySW9xqok/i3/a01P4xW3xbHgX4+fE3x98V9c8CLLoXhzxZ8QfGWv+LrmDwbHb2//CHar4L03W7+40rRdOj0i5vLMJbtPdW+vw3kDbIrdpY/9CDWtO/tK0Lqkcg2sHSQFhe2ZXbc2k46vHsDqwHJhaQqfMjhx/NV/wAFg/2G9S8UeE3+IXhfTWb4g+DtK17WtAa3jAl8SeC8Nq3jvwlMwX5tX8LFD4r8PaixUjRYr5TcLE8obwM4eX4LF4LMcTOjShVc8PV9phVi37ap7GNNwTrUfZxm3+9m20rRnK0Kbt7WCxdbk9jSqTabupx5naMnF2Ti9XF3ceuifS7/AJhrTwtrd+403wzZ6fcXerDSbF5fsMtxqWnarbzK1nN4HsLU3GrW+qXawSxWljpz3EysZWeR12KPvb4o/wDBKv8Abu+F/wCzzr37ZPxJ+BWqeGvg2dQh1DxRHdT6VpvxM8P6H4ivLa20jXb34d3mtSav4f8ADuqa1ey6VK/iS2+SO2twrmYzxQ/20/8ABJX9kz9hHQv2ffgb+1f8CNK0n4q/Erxn4C0G51v41+NYdM8QeOfD/iu1tNKsvGHgzRraGCHRvhymk32l3Og6pp/h6AanMA09zeBZ9kn6n+L/AA/4N8T+GPEnhDxppfh/V/B/jfSdb8P+NNB8S3xtNH8R6J4jspLLWtOlZkllgSeJ4jD9ndDasJHbz2mRofyTPvFjHYTMKWFyTK2o4LM508wqY6lPkxOFw8oe0o4WMEpUJ1lJ2nauqcoxUqc42b/SMt8N8NicI8RVljPruJUXUrVGq8b2fIoU5KnGNubrPlknG/LY/l7/AGIv2CP2GP2VvBy/tgx/Fv4UftA/s76x8IP2Y/2nf2ePj38VtN1HwP8AE39mz4u+DvjrZ6NrXiLx54dtdW1nT/Etj4Y8aL4b8EfFi98IzX+s+FbDQYPD2ueFjD5NxqX5XfGD/gqb8Lvg1oX7Sen/ALEuvftCeNPiX+0N+1Von7SvirWv2mB8Jvi58DPgzr+h6547uvGXgv4B6D4k0/Vp/jV/wtXUfE1/4d1r4meKtB8Dp4i+EEeiafL4T/4SGdVX56/a7/Yq/aA8KfGj4k/s+/Ad/ir8eP2Yfg/8WvHV58G9WXWb+88B2Vx45tNE1LxFdaHY3F+2jJrzWsei6B401XTLOG217xD4an1RVdmjmb57sf8AgmD+2Zqtvb3V/wDCzVtEtJpLlpPttxpafYoW0vUnt7i5jn1O2ne1e48iOae1iuXtWeFpIisi4/bMHx1wy8Nga+JzCGGq4uhRxDoWhUnRVRr93U9+nKM4yjJOKjZx5XdKVl89i/BTxG9rJYLhrNMXQk+ajX+qSoQr05+9RqU1Kc3y1I62aTi017x80ftGftDfHD9q34oa38Wvjh4kuvih8Ub+3hs7jVr2XwvoekeHfCHhTSmttH0XQ/CvgvQNG8F+FvC+gaZZmDSvDnh+F9M0yN2it4wWM8v9Cv8AwTZ/4JsfsqX/AMJfBPxM+M8P/C6/i94tsfC1/wDEX4MXZv8AQvCfwX+HXim40/xj4D+JOh63pviDTJvFvijxX4avNW8M22sG6l8OpcnUtCdI/tU15F+MfjX/AIJ9ftkW3gy+0lv2WfE+lRWXiD+211nQtNs9RNpB/ZY059FtUs72WY2byj+03klLM8sqRKqosrTfYP8AwTv+L3xp/Yv8YeH7L9pPw34k+HXgK98Mato3hg+PtJ17QIvGfw/t/EEE+u+FtDiv7GSbVtR8P+MLjRPGHhQQW8baBNc+J7uKaW21O4hXTOeK8hxOArSwGYLF1Ixg40owUJxlNK751XqOorrmio0oqEVJycrpx4anhFxxgZUYZtw7nGXVJOo6j/s/E4yEVH2bhGTw1N+zk1Ju9Rx5rrl+GR+tv/BRTxTYfsTfCv44fEj9jP4K+DfAngv4r/CfQPgl8WbDwhpNnpmqeH5/hf8AE3w38T/gH8ZIFWO5t4H8Ma7FrfgbxlocEtzZan4c1vw7MGistBsZLz6E/Ze/aW8N/tR/AzwJ8ffCUsCyeIrF9I+Ivh+CRZT4Z8dWSLB4p0h2iSKIwSXCQ+IdKkEFuV0u/hRbaIOhl+m9e8L/AAj8eeCvGGs+O/iP8M/Dvwdj8MWcvjXxp8Qde0bTfBUng3xVp0ckc4ae9kmu766sLuOK40uO2N3Elxbq/wDx8Frf+Ov9hr9qvw3+w3+2d4y+HWmeL18bfsnfE3x7qPgCXxbbWmp2+iXmh2/iK6s/BHxg0tLxRK93o9tMlvqaQQw2F9oN1qFxLEbuK1uIfO4ezGrmNPFU6qlenTpTg3JzleSceVNpP3VzXS+K92lyo+Wz/KI5WsI4uU3Oc4t+ylT5nTVN6JylrK7dmrqz72P7F0E39jaidCvY9N1e4tSPD2uzabbaifDupLua21eCxu9qXVxakkxI0tuuSSWPy4/Pjx98IfCXiXxT428K/Crw34+/aP8AjZay6Z4c+Jfx2+MHie50nw/8M7nT9OE1xY6drGsWun6JFpd22qSvaeH/AAhpmqhHndzNGTMYvvvTbO/W8+yLPDPp91Gl3pt7busltdWU6LNbz28i/LJDJC8UsT4y1vJHkmQMFw/jTrXxt0Kz8FeLfAkWteMNE8EeI4P+Ev8Ahd4ftILrVvHuieItZsdOhhsZYTHfQyaC10ZjHaQTyXquUDQy/Z45O+UHCTStG3ZWTu07/wDD7M3w9SnUo0pq0U4qLUkk+aNlJNaaq2ndNPZq/wA56jpdp8LviL4TtNcfxx+1V+0Lq4vb74Z6VqOsHw/4C8A2lqq6Qvie3YY8LAeFdp8mRQvjhcBk2kgV738IfitqPj2DxF4X+INrYaJ8ZfCc98uq+GtOW4j0zXNMs52SPXvC8l8UuzocsRDW5nikJYSyLIykmqkPgn4iftL+NPB3xA+KXw9u/wBn34afDbxRcah4N8Nalq1tqHxu8Xrpd9BHHba0umX0lr4T8NTz2dxKtpqlxdXTS3t7dItzJCumn6a1fQtCsr+/8aW+jaXba69lBpuq+IX+x6dKmhpKJJDf6jczxRQWlmIokt441GyKS4iZnExYVFt6Pot+trpv/gO17oJqC95uLa32b2umt3+R5b4n0nTda8PeIvDfiCTW7Hw74r8NeJfCPiO88Na7eeHvEdno3inQtQ0DUH0HVtMeK/tdZNnqM509rOaGfzkJV/lIb+XbxT8Pr79nT4y+IfgZ8SNR8CaE3hbxH4N8C+E/B/hDTrrw3b61bXHw90XXPAPxG0ePSrTWLWPwv8X/AAgmla7r19eXB1j/AIXHc6/okmkM1sJrn91vj9+2t4T+GVi0vw/0S68YeK4tXtNFsbxojPoa+ILuUm2tbBZIS+qSOkfCpHApeTaxWNUmf8Uv2r7P4lfGS/8AHH7U3h24/trxRo+gt8Cv23PE2v2dpL4W+Hi+PvEWma98Ir74d6XcWwHhLxP4U8Pwx6JY3izzazp3jjQooI0g8429x6+BpOCmleSly7Rdo/EtEr/Fp1V2r7ts+Ozqn7edP2dNw9mpp63U2+SzWkUmuV9ZX5r2Su1lrpiLN/yEQuHbqcnGcElmCMe2WKKSeSoPFd0ut6bp2i6nHqsn9nrpwDanqLEY/s4qOcYyR6epzxVz4P8Aw3+InxU8G6r4y+2+GNB+EXh/Ub/w7qH7UHxU07XPhx8HPEgg8xIvE/gFtT0uTU/HFxrdrBbJpfg/wda6x4hGqR/2dJa2y3lrcT+2eAvD1sdUstP/AGZvhlH8WvFo1OG6f9qf9obwNFp3gXwZGgnjTWvhH+z3NdtpBKhvM03xB4/fxDd2kO2dvBU1wtxDXoKeGhzfWMXh8MlZr28+RzSfvKKs+ZxVrre8o23Z4+Fw1Sq6lrwlDlsnBvmb5ut1Zaa6NNPXTfifDXwI8T6/4dT4k/ErXdM/Zs+DlzcTf2f8RfjNpz2uv+OEH3LX4XfCmz1BfHnxE1m6Yf6Lb6dZW2lXEcsUw1xI5Nw9Y8G+DP8AhY3hqH4ZfBv9nu18G+DPEHiTT9e8QftGfHG0g179ovxjPpNzEsWl/DLwlYJpvhv4KfD6+vL2Vr3who8viG4v7eZP7d8Wx3sLqn2J8Hv2IZtd8Yy/Ej4q614r+OHxNuURZvHPxFu7uew01DJLLNaWFhqEVza6RaxTTT/ZnMDl1mlFlYHa0MX7a/CL9mzQdLhttU1vSYL7UbZUMVvJAqWFg6qFA062OSJFBKC8ummu9paOOSK3KQx+FWzfFYzFexwFKMMJTUlLHVKnKqs3ZctGg6ftHySjL3pSpqSlGStbX26dFUKbdXm9rJ/wuS/Klqnztq6lzfyrbrc/PX9k7/gmV4f0200bXJLmWI5Q6pqd9/xUviq+JxuGn3jRp4c0KMZYL4o02KPxIE/c3EFxgPX7q/Dn4f8Ah/4dW1vpHg7RrWxghQFxbwb5ppABunu9UKvPdTsSd0kzO2MKCqKqLsaLolvFbwwpCF8uNY40ChVhjAAVVAxyQoJIwTjt39m8O6SkUKrtBYYwSMZORz1HfHXkD61NPByjOVSpiKlacnduatFWd1yx5nFWdtuytY0oOU5SbtFR5bLl3vfr8vP8jb0kXT3tvM0YB8qPkNuxkkN8wPIwzKTyDnCk5r2lWd7OJsYZVGCOG+UleD1Xgt0Ix3OOK5HSrA4VgqswHOAM8E+owQOep+hyQK7eGNxAq7SMAZ49gAM/Ucf/AF67bvudVTmnZ9r2Xr2IbMyM2S7MByDk4IPBOfUEdjxk9zXXWCPweo6Z6nnkHGe59eMAjJIxWPbQncPl+9j1xntyeTzx2xz3xXVWkJVRkc8buM5Hbj2H4A9OpJDGz7P7mbkXRP8AdH/oNbUH3B/up/KseNSNvGAAPT0rYg+4P91P5UCLatng9ex9f/r/AM/r1fVepVbPB69j6/X/AD/9cAfRRRQAUUUUAFFFFABRRRQAUUUUAFFFFABRRRQBXooooAKKKKAK9O3t6/oP8KbRQBRLMxySSc55PQn09PwpCSepJ+tJRQKye6T+QUoJByCQfUcGkooGaFFFFKyWySAKKKKYXfcnwPQfkKMD0H5CloroAyX++3+838zTamaJyzELwWJHI6E/WmGNx1U/hz/LNADKKUgqSCMEf/r7UlAFeikyPUfmKQsMHkdD3FA47r1X5ke9vX9B/hRvb1/Qf4VAxO48n8/am5PqfzNAizvb1/Qf4Ub29f0H+FVst6n8zS/P/tfrQAb29f0H+FG9vX9B/hVbLDqSPxNGT6n8zQBYyfb8h/hRk+35D/Cq+T6n8zRk+p/M0AWMn2/If4UZPt+Q/wAKr5PqfzNGT6n8zQBZ3t6/oP8ACje3r+g/wqv8/wDtfrSZPqfzNAFoO3fmnhgfY+h/z/8AX9qrpuIGfbB9c06gBW6n6n+dJRRQBXoopGGQRQBXIBBBGQeoqFoAfunHseR9M9ePfOaVQyyEdVck9R165xyeOnbPXtU1CabSTTb2S1b9EOzulZ3eys7u29l5GdJDt4Ixnp3U8/544xxxUGwIQx4wc5HT9ePw4rWbaQQ3QjH+eDyO3vVPa+4qgy4JAAIGSPdhj16ioqwcFzyTgt25JxT87tffa/375um5Sagm5L4oxTcl58qTfXtr674l7AeLpVztJGDkjjPXkdOSDkf1qoQpUSOuM/NzluuAD6HIC9uPrXFePvjn8GfhjC6+P/iB4f8AD9+oZxYteSXt/tUL92wsUxk5BxyeTno2Pi7xd/wUM+H8Py/DnwJ4u+IwOQuo3Usng7w+QNvIv9T00Nn73yksc4HViF8DF8QZRgpQjXx2Gcp89oU6sZzXJy8142jZ2krK+uup99wt4Wcd8ZVaEMi4azfEUq9uXF18FPA4KfNezo43HSw2EqJcsvaOpXoKL5OVz524/eOoWgYF1GSMtyDggnocZyVPbrgrgHDGvNfEliURr7/QdM01Mm/1PUNU0/TrBOp4a+5U9iEB5xgEHB/Iv4kft5fGbXDdWcGveEfg9pEhdIIPD1kda12MEZ23OtXdpBBdS/dOYplj3E+WsY4H5/eMvjb4X1meafxHrHi34x648nmMuuatdBPMVgVeDwuGt7VVAGRtL/dViOcD5nNfEHJsJFxw0KuNk+de5any2SXMly1JS1k9OVXtvrdf1Bwl9B3j3OlSlxJmGGyONaEZ01RwjzCdJP4ufEyxuX5U5pOLbw+Z4iEbNxlJbftR4+/aL/Z/8MKyz/FKz1bUSX/4lfhi0HiK/YnOAEXT8EHoQBhgSOO3yv4q/aR8E64rponhLxzqrtkQzXWkWmhQk54aWOSW2coQvzARhv8AZ9fh/wALaP8Ate+MFii+F3wA1vRdKuY1a1v7qzsvC9k1u4Yq6XXiKz0iMjbk/JLKTwUZgVz1sn7EX7bfjCRW8W+LfCfgCKViZ4b7xLNrM8aEAsoj0SC4gdwMAL56xk4wQMkfDYnjPijH1YrKuHM4lh25OOIioKnVTcUuZTUfZxi7qDvL2ivK0bJS/asv+jd9HXgaN+K/Ebh/MaicXUWK4vyvM6s5UrucKeW8P4StWjKPPFSgsZVcrJJpxkz07UfijrcW6V/D2k6HEDuEmr6pbo6rntGBJhsYyMjoepGK+ePFvjHwtr4ZPGnxI0C509dQ+3/2Xp1nBDqNhtwCqanpiLf8lcgsSRjBIODVz4hfsI+EvhVpE2u/tJ/tTad4K0SCGSa5vddk0L4bWIlUxlUg1rxpr1ta3qypIXGxIWiVdzKfNXb8Nat+0B/wSy+G1zbaf4T8S/FH9rHxJczzWkNp8B/CfxC+J+m3ktsVLRQ+J7fSvB/guaVWYxzEeI1gjOW+0FGRz5uYZT4j8SUPZUsHSwMU7+0x2NVKcHJxcXCCpT5vgd2uVxtHe7t7U+LfofcBpLBTWcV0/ceB4VjWpS9i0rwxeaVa8rNyTT5IN3XNzXVvdPDnxj/Z3+CukXng74W3fifwroNxqs2sXfhP4ayaz4T0i71adjLcatb6bpt3Z2cck8paSR44UMr/ADSEsc1z+t/tSfDacs9t8KvFPiCdDujuvFeuXN7Ij54ctezTyswOCSMMcnIB6fm/+018TtR+M2j6ho/wD/ZE8cfs82uo6JdaS3iLxx8RfBnhnWNPuVMU+l67B4btbrxRe20gvIo7jWNJGty3mpxKtrAEdGkT8/vh7+zJ8QvBHxR8I+M/i/4++EHxa8M6Fq9nqvin4V+KPi74w8K6f4y06JhI+h67qfglP+Emhs7k7lnGkwvKRmNgEds+BT8JuOqrax2ZYSlFu/PhISx029L88Yug4Xtp7zctbK6adV/pVfR4yDC1cbknA+eZ3iYqkpYadbBZJCDT91+2y/BOcuZ3spwlyKPu8vNPm/cW8/bz0vTv7VGjeC/C2lf2UWOo/bhJd+WFIAB3SoMjkkEjByRgYqx4R/bX+MnxT0zxnrPwY8K2vxF8NfDjTrLVfiBrngPwpquo6N4D0+5h1S5eXxVqVxd2+n6U1pZ6Hqk0okkKFbVhvUMpHz34i/aZ8Eaj8ZvAnjTwZ+zV+zL4U+FHhnR5tM8T/s3W/wC1V8TtJ8J+Pru3VY/D1/YeNtR8CabrfhKbRot66hp9vCItfDQFreR4pUj8H+I3xL1vVvGvxb0v4FfAHwr+z9+zb+0v4N174SfHn4E/Az4zaF4is/FvhPWbK1k8O+I9Ek8S6ZomjN8TvAfiW2l1Ow8URQ2t3rvhS7u/CmqWkElkba59vLvB3HT9r/aud5m2lTVH6vQq0I/b5uaMvbXUWqbirpq8tbyuvj8X9OnKJKLyPwlyOCirSp51nWKzinyycHCE4OODbaipxfvWUmpWdnCX1L4j/wCChfxp8BaJ4P8AGfjb4bXmh+GviJc+IF8D6n4p8L3vha28W2Hhq40OC+1jQ7jUYw9/prvr9l5dxHbIrIVkRpEYsvTaN/wUR+DHjaE2nxH+GOkapHcoY7gXej6ZcxusgG/cusRDIwwO3awyM89/5Y/jD8D/ANtXW9Qim+JifGf4p6f4Q0lND8J6vqWueIvHbaX4QtpZotK0fSRqOo+Ib3w14etreILb6XbRG0EolHmzKkfl818CD8ZdY+JGk/CPwtpHivUvG3jOWbw9oPgg3tl4V1q81BbO81WFNF1XxDFY2kGspPpcK6fZNZy/2rNL/ZreT9ojd+6t4Q4qhFvKuJczo1WryVenOpGbjFOCtaFmm5q97pyumnc+kyL6cHAOZUVhuN/B7AZfT+H65wxmaoqspykmo5dWozgvZx5HGKxk+eUpWSuk/wCrz4l/CP8AYR/ay8M6Vp+t/wBt+Elsnmk0N9J1iazttHEqxgJa6Fp94/h0sCnMk+hyhlKqykR5P4G/tk/8EsNf+CVtfeLvhTrUPj/4buHuvPktluNe0+1+VxHezrI/nmBWWMTWLXDGRJJngsgFC/Q2h2fw/wDhDL8RPB/xL+PXxH1bxr4b+Edp8atE+IeheCdDl+AvivRtTs7Ga2i07XbjUdS8aaijahc/8IsshsdEZvE1jd2cFvKkqtH7JqnxS8YaToGjeD/Eup2PiTwp4z8L+GPFGgajayX9xputeHPF/hzTte02/tUv7K0urdfIvxbGC6Bnt5LdnjSFWjY+C5cecAYhVa8K2YYWtUVNV41K9Oj7Wm4+yhXdepiIJ4lTnySh7FwcJ25koxPrZ4X6N30jMkrYXh2vhMtzqFTGOOVZ7KGW59SoL2XtK+W4jC4hU3ODadWnUlVhU5abVW3Pf6j/AOCN37YkXxi+D+mfswfETXIpPjP8HtBFz4HuLmWf7V4l+Fdg0VjpeivfXcNvb6vrnhOKN7Bzpxnkn0OKznm3T2140P7j6W8uCXZt+U3HJB3Aq34YdQw9GAPUA1/C3+01rmvfs/8Ax/8ACPxc+FV3aeHPFWna5D41tJtFxpev+G/Fa2Uc2r6VcqU2/wBiSQJMAreHAglV0WWGN/n+6fiJ/wAFLP2gPjZ8JdJu7HVvFPiS5k/s6Wfwv4P8LJoM97b2ysmrRC70qzsL/VNXtyUlt4dG8OyaSGnLi7AkLv8A0LlOJlmmW4THTiqVSvRhKcLudm4pv3mk931XzZ/llx1kNPhDirN+GKWKqY2hlOPxWFpYt0o0p1oU686MZ1Kcak48/LSjzyjUtKV2ow+E/pQ8U/tGeHbHV5vDngewuPih4tjG06L4W1GGdoXZtojvr2OO8WBi6spS3hvpY3R1nihbaG+bfGHgj4/fFCXQ/EHxt00fDn4S6pearcwz+I9VtNF8PmHw1eQWy6PofhnQNUv/ABvq+t3F3do5uX8PzwW58treGzCRRv8AK3/BLT9qTUfGnwevfiFqOleGPBXj678VeILTxZ8R/FEr6doVjoNrPpF3pGl6VZQafqd/f+J7yN7u3udJtAkki/v5rm2gEiSekeJf2xPD9x4o1X/hXWt6h8ZfFs2najFY6jafDvxR/aekavPd3dg+gaRrniYWtgTLcWW7WIfDUbXMmmpHMmoRizCS3icRTwvI5KMm+Z3c0uTl5U3azv8AFs2tt7s+ep07pSXNK6Wju1rqtEt7LrfbQ+r/AI3/APBPaw8bfsE6B+2R8OvFXgjS9N+A3j+LW9D0m7jFhrXxY+Gg+IEPhrxRp3j7xXHrWl6r4RsJLOCLUvB+keEI9O8VMIP3+vzTX8LW34P+N/Gf7Rf7Ydt4d+HOq2+n3fwy+Heuau/hr9n/AODtg3gP9mPwj511JYjxBo+gadNO+ry6/JHJfr43+Ieq+MvHOutc755ZbSNbdv04m+AXx2/ak8KeHIfjxNq2kfD7SdfvvFmlfB7wNrR/4RTVfE0sc1rY6/r+gRQQ2Vzq9hpstooSz017uK9t2uZZoZJdsf6g/Bj9kuztdOs47Pw1ZeGNPSOMDTrCKCTVLhQF/wCPy4wYrYMACQ7XM45VoLKQYHnvNsQsRSp4CU8Q8Tz+0XJaFB0kuSzvKLUueabbi7w+1eyivhVV5W5Kmotptx0lzJO13KOvuvR99ban5C/Bf9gDXNbtvA8nxT8Q6x4y0XwHpWoWPgT4Y3N9qdz8P/hsur3l1qV0fBXh++1GfS9Iu572+urm9vYtPa6upXXbJbx29rHF+2/wk/ZisPD1jaQXNhbw6bewokWjW8KrHEANw8wquWYY3Zz/AHckAEV9reBPgjovh+0t0a0hGza628cSbVfp5lxIRm5mOOZGJxkKuxFVB79Z+DYoFiKQKm3BVUwNvsACAPpj8SeR1yyzEYq1TGYm9TdQcPaRgnulecUn3smvNk06FCjF8qi5NNuTtdu17rRJa3tbXdNvd+I+BfhZYeHYoI7Szis7dQm2KGMJxwBkjnOOoPJI474+htI0dUVFSHaMKC+CCcfoOfTgADNb9hoaKEDqGYdgPlB7Z+gHPbGfx7qx02FEGVHTB4GMDoAPYnjOMfoPRw2Do4WKUE5SS1nLe/Xlj8MF2UVeySbk1cxnrKTaTd92rvR6L0XRdDn9M0QB87V6/e9zgdMnPOO+RgnuBXqOl6W0aL8oBHYDOOhJ7k5HQ555J61WsLWIMcgDBHy/hjqO3TGCMEHIx17zToUOBtBBHfOM8Yz+v9OgrrM4R5b7a228r+XmaHh+xJ4IJBfnOO3GRzg4HYHsRz275bJFjUbAfu5yM5IKj34PXH8xmqWi26qQzAZzxySRx+OM/nyRnHXrWh4Vcctsx0OQTx06fpj27hZnRWqrgbBx04I9zjjr17YFaMMI3D5c8rnrwM859B69qtra4wT78Ac/mefzHsPWp1h28hecYznr+uO3YUASRKAi5UBhnqMEcn2z0/Sp0+8P89jRsb0/Uf405VIIJH6j0oOctr0H0H8qWkXoPoP5UtABRRRQAUUUUAFFFFABRRRQAUUUUAFFFFABRRRQAmB6D8hRgeg/IUtFAFeiiigCvRRRQAUUUUAFFFFABRRRQAUUUUAFFFFAE+B6D8hSqBkcDqOw9aKUdR9R/OugCpcfdf8A4D/MVlSkgsR7f0rVuPuv/wAB/mKyZf4vw/pQBXooooAr0UZA6nFAzkY5Pb60AJkHdzjb948/L9eOKQhSP+PnsPl59scGqX2K8AvOf+PkDYSThQPz4xjpn8ua5LVfGfhTwygPiTxb4L0KBMRedqnjLw7p7F0ADq6alf2QRlyNymQsCfmA4yAdqep5z788/nzSV4XrH7VH7LHhuPzfEn7SvwJ0RclSt78WPh+sqOuNyPGPEmVK555NeHa1/wAFN/8Agnj4fuZrbU/20P2d0eAkPHZ/EjQ9UuFIJDK0Omz3WGBGAEkkB7E0AfctFfmrqv8AwWL/AOCYekAm5/bI+GExXOU0638Vau2R/Co0nw/fbj6EHaezGuY1L/gtp/wTA021W7/4adttRjdcqNI+G3xQ1FmOM4VYPCW/HTDFFBzgHOQAD9UabvX1/Q1+Otz/AMF5v+Ca8RIsPip4+1tgMhNH+CHxVvZD/wBsR4XEgBxwXRVJ4BPOIo/+C9//AATwfA/4Sj40KT/1bl8WGx+P/CM8/wAvXigD9gCnzfd1Hv0X5e/t/nitCFSMEiTv/rPvd+v5/wBDzX4/D/gu9/wTsIyfGnxmAPY/s3/FnH/qM5/+v7U//h+5/wAE3D97xx8V1Pcyfs3fFnPXvjwx/X9eKP62DfY/Y5QPl4HbtVcspJwepOOvrX47n/gu7/wTbzg/Ef4kR5H8X7N3xXUj6t/wjK45H9DTm/4Lvf8ABNsDd/wtb4kA8Hb/AMM/fFj1HBB8MD8efoabTWrTV9dU1pZO+qXRoOqT0bdrPe6tfTyur+qP2GLBepxn1pvmJ/eFfj0P+C7n/BNy8BEfxV+JBPIAHwA+LW78l8Kk9sjjjHT17nwf/wAFdf2N/Hr7fCWofG3UVI3Jd33wC+I3hrTJ1LFUaHU/Fej6FZyKQMlkcqBg7mUqx87G5lhcAoPEYjDUVPns69dUk+Tluo+5Pma5ldaNaWTu7e5gOG8/ziqqOR5JnGd1VFSqRyzLcTjPYcybp+2dCNR0/a8s/ZOSXP7Opb4GfqeCD0/z3/rSZHI9Ov41+dXiH/gpN8HbNPJ8GeF/H3jq/WMPNFaaOuj2doWAKrealfu9rCS+9G2+YVKHg8V8cfEj9vj4564t1B4d1Hwh8JtJu2dZPMiTxL4mNrlTH5dzcf6BZTAFm82C0n3ByBsKqR8/ieOOHsNBynjI4htNKGBTxdS+1pRSpqN20o3bv723Kr/q/CX0dvFHit81PIK+T0oTpxqVc6Swfs+eUleWEvPMpJcsnengKi25nFNM/b/WtZ0Dw/p9zq/iPWtG0DTLRQ1zqGtalbaZbRqQcfvrl443bgDbuyMj1GfiHx5/wUG+BfhyT7D4Nn1P4pakJZIHi8JQSLp6yR7chNa1G3ttMmA+cv5E8hRVBIywUfg342+L9j4ku5LvVtb8TfETVVnY3uq6/r3k6NZyrj/lrd/Z9K0+FWBEcBlVEU4EKjg5/gifU/jXZmXwV8Zf2cPh14TE80K+IvFfxo8C6Q98ImKSwPocuovq8nlOGUGCKEqzErL8wFfLx48zDE4pYfJMvrU61bn+r1sRQWLc4pJuUqMZ044eyktJ1JyldqUafKlP+k8s+irwRwbDD5x4q8fYGjgYwhOeHpKWUww8kmpwnUw1fMs3xirTdNUXh8Dg6kXCSqQftYcn6VeP/wDgo98WL6eaHwtZ+CfhhYbiI7jV7k+MNdMZxlbjSrSG3ht5lA4KXLrmQkMCq4+FfiN+1t4q8UvOPF/xl8c+IkkZhJp2kuvhHRuSN0dsFewlERKjKyahKQNu47cV7R4T/ZM/Yu0NYtW+PH7f/wAH9TuJo45JtF8PfFn4e6LokbbS7i31CXxJqXiBy7cvtltd6YHkjJRPpDS/i7/wRX+BdtBO3xn/AGYp3t1A/tEa7e/FfxBPcRKQZLgWUXiO5EjgjYEiWPefkxjC4YnIOOs8mqmMz+tgKc5SdSlHlpwtLlelLC1Kc42aatKtPm5rO3KejifFf6LnhrGFLhPg3H8Y5lh3JU8TQyihh6MpxcVdZ1nkcdms1JOLjJ4airXtT1svys8N678QfG188Pwg+C3iLxLfzMqyaqNHv9ankDk5muNTdLaxZUBZ5Jl8T3IRA8hRivln6r0D/gnx+2R8R2gn8e+K9F+GelXJDPpr3o8QX6Qk5kjk0PwzLb2AfaNoW71W7jy3zgoHFfUWrf8ABb/9hfwbBLo3wxj+M/xds7RSllpvwq+Ces6LoRjBcLs1vxi/grRI7eTjYVunAGSyou0t8SfFD/guT8bNcNza/Av9mr4b/C2wfdHbeJv2kviNeeJf7F1dxjzH8CeDG0Wy029jRsxF/Eeq24nCtLHLErxP1YPwzy+k41MdmGLx9X/l4qjlToy2ukqVSFaz1+KvK+l1a6fxWd/TR4srP2HCHB3D3BOCSao1qtKGcZnJ6JTbxmHngaM4pqTdHL4OTlo04QZ94/Dr/gkz8EvCX2e/+IWv+N/iXdRqktxai8fwRoyPFlzIlrpEi3yRZ2s0d34iMZUMkhCM233jxnd/sTfsQeHH8T+MPFHwD/Zq0Zg8Laz4x1vTPDuvX5jAZopINRur3xFqUqrIjhrSG+Y70kYIpQ1/JV8c/wDgp7+1L8UtJu5/iz+3r420vTJ5bi0bwJ+yr4Y0j4S6RCI8K1nL4nsLSTxZqFsdxUPB4ns5yC4kmlVgi/BPhDSNW+Mvi43H7NX7K3j34/8Ajy5czTePPGkXiTx3rdxO5ZXu77Vr618R3EJ3q5WS+uDGxDCEltwH2eA4T4cy5R9nllKUkrc0nFNtrW8uR1Jaq/v1J6XV3c/n/irxc8TeM3VWfcbZ5i8LUm5LBTx2IWBpN6P2WEp1KWEo300o4ekrJaH9PPxu/wCDgL9n/SmuvC37Lvwd+OX7YGstKbdfEsFgfhF8FBtYDdbeN/FcD63rNsckyS6L4U1BlAjKxneA34xfHz/grJ+3P4gvmvPFP7SfwM/ZH8FPJdPL8NvgL4V0Pxl8Qp4LhFC2fiD4h+LINT1h59m2MJo9poccEgndFAkIX0H4af8ABE7/AIKe/HSK1ufjf8QfBP7Jvg672SJo0k9rrHjKC3yGntv+EV8N639rWZlJiiV9YsSWYbXQncn6h/Bv/ggX+xJ8NbqXxH8RrL4iftGeM7i5sLy9uPGsn/CH/D++u9PJeKO+8N6ZMusazYrI8knk6h4kcPvYDKsQfWVGlRShRdKhTT0p0qSirbWfK7u60uz80mueXtK1adere/PVm6slJuLbSblbbW+7Wt9LfyFX/jj4eePPF9rP4Y+D/wAW/wBq/wCJWsXManxj8Xdc8S/HLxFPdSOPs11byaj/AG/fWwEjeaWj8PCPpuIAGPuvwf8Asi/8FTfjFpdjpXhf4XaR+zh4KkUf2df6ha2vgKVLd1Xef7P1eMPCwUfKxs7Z3J3LEvylv7NPCvwl8BfBywt9K+FHw28D/DLTrWNoLqDwR4a0vR7q9iI2NDLqlpbx6tcoVzG32zU7oFdwIYEg8x4g0MM8VwIdvljaF2qvCjGTt6Hgcbj2xwoNdCxMYW9kmnb3nPlak0ly2XKmra7t3vbprMnUrqMa1SVSMf4doKnyp2uotOTfNaOrs9L7vT+Uex/4IZ/tC+LbKO2+MP7WptTfsG1i20iTWfF4lJI3ohsr3QbX5uSN7CJh1I6D80/25f8Agm38O/2MotT1Dx5qXxO+IPh6ystKurnWNG1S+Oo3Xha6C2trcrZT3c9xpNlY3MU1jrf2yMhhHFLE5VpBF/dk8SNw6A4yvIxjPUD0z1r4r/bP/Z20z46fDHXIRY2V7r2i6df/ANn2FzZW11J4g0fVLaS38ReF5WuY5EOnazawxJe2+3M4jiRGUkhuOeaVU3+6aV2m4u2l7XSUNdLvXXze504ahCMaycZTVor3pSaduZJtPR6PutNLq5/nt/tAah+xNZ6Jo93+z38Rv2nvHOuX08kuvaV8UvCfhDwPYaE7W0ZEFn4h0Pxv4w1DxG8Mm23lludI0IZDGJZkRZZ/nfwLf+IvEPiDT9D8NeNtS+Hd3fR37W2tXniTxeYZriysLm+t9PJ8L6Xe6m9zqElsLOzWOzl3XEykdMH0v9tH9my5/Zm+MOoeFrL7XP4J16OXW/BGoXSss02med5N3pd+jFjBrOgXhbTdVtQ8ohkSBhcTebkfef7Pnwt8F2XwK+F/x78KxXmoeKTNa/C7wL8HPCnhbXx8a/iZ+1NofiTW/Ej674O1/TPDmp/8JJ8P9I8NXGiPr/2rW7DRrCaIeGxHHNLsveiOLlOnGp7S8XG65mtH1TbvZpq1k977nlVJwpVHD6uuZt3cZvaLV9Em9ntf3e/fxP4bfFf9ubwpYSan4Y8e/wDCYaLo/h3QfEGuWuq3tj430bRNH1y6udMsbbX5oXu7+11aPVLOez1LSZ1a40+4dFM9xL5kUP6cXPx9/aitP2RvCXjzxt8BvC3hq8+PPxN0TVf2ffiL4HsfB0NhefEb9njxVp2t6Zq/j/wv8QxqkPhn4d6/qeo6wsctlqWl3+tar4MeOd00R5ZZf1N8D/8ABDv446Z8B9Z/aY/a2+MmlfBjUNRi8c+KfiD8NBp7eNV/Z5+GvjnR9Ev7PwJ4SsFh06w8cftKfEjxXp+naERr2v6j4U+G3hME681/ruAP6Cf2Nv2FP2Mf2oP+Cc3gX4V+PdL8K/EHXrvwxPJ4r8c3k3hO6+JPgPx1oup6/ZLfgaXfMPCTeFNQ/wBNsNOG3Tuf9PsK4ameSpzVOlSws05OM5VaanKTXLZ05Xg4u7kn8Sb5WtVr24eEJxlOftVyJci9rKShff3XF2u0nsrW0vqf5pfxE/bF+If7RfxdtvDn7UnjnUvAfwT1z4ta74h8d+Bvgj4f0rw74T8EXfivVTqniPWvCHghU1XTZNK/4SW6uPFV/oko1K38+51dtEtRPfWtqn9FYsv2dNc+EPhnwbY+HZ4PiRovhnSpv2Z/2mfh6rp8OvizoHibxXp3h0/DTxZ4c8JXyXniXxZ4D0VLu8+GviW+0yPTLoj/AIQDxSkaptr039ov/ghZ8N/2VPjp448NePbTwz8YvhL+0H8HJrTwD8WpYBp+oeBPFgv3shfeEwmt30mn68bK/AxZjXNCGhWHTOK/mt/Z++JHxY/Za+M+m+G9Xv8AxZ4o034N/EbxZpmneD9KnmWXTPEWk+ILrQfEt74bt2Ei6ZPrX9jrHcvboUljYTlXuJGne8dhctzbL5U8dTjVi3CrGLlb2coJtN3vd+9dX1ja6bu0aZTnebcP5nHG5VXlha0Y1ISqpSvOM5U3upQf2LtNtTVk7q6f9evx+/4JMfsT/wDBRPwPqEfwl8J+Mv2f/wBur4P+CfDmg/GX4UaReJpvjnXp9C8O2sMHiTwLY+ItStfCvxC8G+K40BNxo8w1pXt/KiszPKA/4I/F2aP4W+IbD9nL9k/x3D8PNF+D1n4T+B/xw8X/AAy8MaJY/tD/ABI+JF3Z+Ibm51K71ZYZPFFl4T0u4S80fxU/hCXRPCcup2eqweIIJrqdbu2/R/wV8Zv2l/j18K/CeoXH/CSfAn4qaL4+1+/i+Jd3beGvHWuaN8L7m8kdfDngr/hJJrnVNOhSL7Mupw63JINLvrNTZrdWxHm/ZH7J3/BPzQfCM0w0HwslvLfvNreq+M/GF1Jr+t6/q+vSC81zU9cu5T/aniK+v7wGV4dR1FrCEqjNbyOXlPlUsZDDYeOHy7CuvCmpQUY1VBU0kox1jTqKzs9Elbl21JxWKxWYYmrjcbUliMTWnKdWvPmlJuUm7uUpTlf3t3Jt31Z+Q/7NH/BPz42eJPhZonwv+L/xL17w78KdD13xD4i1DwPoijSh4k8a+IpEudS1nXNU0C70e+1KFZJXe00a4mlg08yRbrgvEjSfub8Ev2IrPwjb2kHhrTtN8FaTOoLapLa2za34gkYI00yFY1SCWeQO0ssai6mDkXVzcv8AO36Z/Bj4C6B4PFveS6Sf7XhudXC39/GkvkKFARbK2VFtrKFQpSPyYllMYCSSSFQw+tNA8HLaEDaZ5EOcuQsa4PzYXAAAyMYAHXoCc5Usvq4/mnjJOm01KNOLlK3PdyXN7l9EltZPprYvD4r2CknTU7qNm5ctlFPf3ZX330fdt6nzT8NPgFo+h2UDPaBJCimS8nUSXVyw4LBiCRuxjngY4B+8Pqnw54Kis41FtAIYVOS4AMj8dSSAzZOO4BI/iNdlBokaqrEDfz8oACJg/wAIwPc546ng9T3eh2DkKGT5BhQGXOQOpOcdOBnr19DXt4bB4fCxUaNKEWlZz5Vzy83K19d2l11d22359fEzqSbenaMdIx0Xzbslq/wWhiafoKKBiNSwHLso4I6feGRk88e2a6SPRwq529Oc7cZG0ZAGeM4+9z16HpXZWunIMcAdccdjgZHTrzgk9+mOa2V0yORccZI7EZJBHrxyOvvx14rqOZyk9XJ/ecBbacMgBADn5eMnp6nJH6DrmumtdKfj5V6jGR2yvPGM8D05yOfTpLfTFB+VM8n7o68dM9Af/rda3bfTuRkADrtTqRx1Y9Ae/f3BoNZbP0f5GPp+koCDjB4yT1+8c8d+hx0yMZ55rt7LSlwNsYAAHJ4z39uuB7DIOOaLOy242J0K5IGT1OPmPpggHnqenSuts7faACMcDPUkkqQevPYdNv4igweib7Elja+UEGBkDqAAM/4cY9cfp0kSkKNw6KMH+X0wAPXIP1FV4YBnngAjqDk+o655HU59h3q8BgADtgAfyoCEmknvpr5/13LAAHApMD0H5ClooAnwPQfkKMD0H5UtFABRRRQAUUUUAFFFFABRRRQAUUUUAFFFFABRRRQAUUUUAFFFFABRRRQBWwPQflRgeg/IUtFACYHoPyFGB6D8hS0UAJgeg/IUYHoPyFLRQAmB6D8hRgeg/IUtFACYHoPyFGB6D8hS0UAJgeg/IUYHoPyFLRQBXo6UUUAUCSTkkk+p5NJRRXQBXooo479O/wBPxoA8n+JHj668CSWVodOunm1Cw1rUIbi20LxD4jhePRRp0s9mtv4b0fVbxNRe0u7m7WB7dVMdmVWV/N3R/iD/AMFVPH37VXiz4F/8Jz8J5f2k/hZ4L+G2pr4h8a634H064+D2oeIvDU72VnLHN9r8Z3PibVbaxuDF9lit/DdofP1JRJsSYmP+hZio/wCPYgDvux/Xjrnp+H8VY2uaLpXiPR9S8P69ZWmq6RrNldadqVhexLPZ3VpeQyW1zb3EMmUlt54JpIJ4mwJIZJEyu4EAH+Z9q/7ROpfEsMbjWf2oviHaSBsjxT8YviT4i/tL7J6j+170kn0GecgYXk+W+T8RNUJvNK/Y11nxdek4D6t4d8beJBfDO3cy34HmfKc7DyegHev9Nvw/8Fvgp4WiSx8MfCX4U6EqAYXwx8O/CumeWeijadKflQo2jpnBz2r0iw0yy05BFDaGJB8ix2thpdgqjsAtjFbo2AVIDAqT1Hor6N26X/Dr2A/zF9E+EP7bGuhD4S/4J6atp+/HlLD8DdX2gE8BfPiYOBgevt0r0nTf2Qv+Ct+tbR4V/Yl8R6cXPybfglY2oTnAJa/8oKOclnIz14r/AEtFW6AxCbzbxjfLYJgdht2SHt0JGPT1jaG/YHLzDqeZogP/ABxV4/yK5HirNr2ezt8f/wBqB/nEaV/wTV/4LeeJMEfs1al4f8wjm88N+ANFKg4HO/VVZMZ53EYxkE8V32lf8Eav+C33iAqT8PrDQCx5a88cfDnRtm7H3tviWdsKT1RSRj0Ga/0K3tZQ26VsbcH5nZj6cMDgdvzoEkaYVie+MXhXOMHhSp6dyD+FJYtyvywTto7NuzW97LT06A/d+LT10/M/z/Iv+CFn/Ba+6bN3q/hjShjHHxi8LIcAnhmh1sqQOeikZ4GatL/wQO/4LCNwfiV4BsCTklvjPoAbvwfL3Nn/AHWOOOa/0ABh8cgg8ZLAjH1OAf614949+OPwk+GAc/EDxjovhmM4W3e9uYpWuZQFaSFIbZp7hXjV0JDRfNu2jkNhyxUY3cquEpcusliMQqLa/uJxlzNLVp8trx1s7rqweX5lmWJo4TLMBiswxNZ2hh8JQxOIxE1prTpUKFXn0d3zSh05ebW38No/4IBf8Fg8Aj4xfD4nqP8Ai84Hf/Zj2/lxTT/wQN/4LPjI0/4v/D1lHBx8Zd57dF2898ZxjnsK/rJ8Xf8ABQP4e6PK0fw08CeIvHRiJNnqdsh8MeHHaQln8i71jTYlmXJZpHjgQZIZGcuSPiL4l/tjfGzxkLmLUfG3h/4W6DMWxoeghdb1CSLIIS71+5iS4jdQD50djELeVmyrKFTHg43i/KcEop141Ks3JQjS96PNHlTvNtJJOS+JK/Y/d+EPo2eJvFFam6uUvh/BPkm8ZnXLRc4ttSjRwNGdXMZVotJKFbC4enK6arJan84PjT/gkT/wVl+Dtnd6/wDEj45fDPQNHjQrbSat8a7O2uNSnTHnwWNnG9zcTsgeNjuCFldGAzkLvfBv/gnh8fNQb+0PjL+094qt7Akeb4f+Gtl4ftFBOcn/AITPx1pN9qBXjIOn+HR6EjOR+tceoaj471uzh8M+GPEHxD1rzCzatqF1qmpyq2QWMULWBLKSAyEYUBRxwK+0PDf7Cfx78fi2u/HmtW3w+0ZlRjYWix6vr3lEZUNbwTRxQD5Sji5u4JI+Abd1DBfh834s4ozedCllWBxVKhS9sp1qKVZONR0o0pTtGkoKKpy5bSqc3NLbl97+nOG/Bzwd8GadTE+JvEXD2Y5lXqRxFBZrOVaphpxS9rRp5Bg62YYrERqupRTrVJYelRlCCqxi52X5w+E/hb8K/hRveGf7Tfx/ML69x4r8QhVBJDa3fLkcALyMkdRya9H0e/8AG/jG4EHgD4aeKPEtsh2/bpEGo8AlS0drsjCKNpHlxMThWwPlzX7gfCT/AIJ9/AvwP9n1DUdGm8d60nzvqfia6NuqsSdxh0+zkFhAhIRtkiPNGykxsM4H2fp3hvRfDNqll4fs9F0e2RQq2WkaYkC4AyPNu2BlkcbipZQquCRwAKzwPh3nuZcuIzvOHTptucI1a9bFzd7SlH2EPY+zbVotSk4u2z5Tys3+lR4c8JSxOD8OeA6eYzi404ZhioUciy9OnKadSGAwFKpXxdJpx9nHE4qm1Fu8E5SP52B+xn+2b4v0T+0V0DRtHguXL2Gi3HirQ9H1K4hOAvmpcTQw27MPl+zzTNLGwYSRpjn4z+On7GP/AAVStcp8KP2UPB04jzjxbrvxV0Lx7fNggDb4Eg17R9BYHAA+9gfNknBP9fjpIxO9+Tg4GAOn4se33gD3qsYUDEtuI6Hby3XsTx+nSvpsFwHw/g1VVSnVxM5um4zTjQ5ZQUlJ2arN8zaaScVHltqpXX4/nf0t/FXN51YUf9Xsmws1alSynKYYbE0tU/8AfXVlUqWUUo81NON5u752l/ny/E39h7/grDq0cg+KX7J3jb4gWMJkaDTB4MjuNCt3kwZ3tdP8L6m8ASVViQgBvljRdz458Tg/Y/8A22tPiEUn/BNe1ggjYusVz+zbr2rRBifncRxKFDMTlmxuY568V/pDlb3BA8v7F0+Vj9t3Y/hwcgemMADiqDXGoWZIEOt7c4Um61YADueFAHpgYFfSZZl2X5VKc8PhKXO48kKjSVWEftLn5XfmsrtKLdrNu5+G8ScccTcV2/tzN8xzBuo6lRYrFSq0py05LUuWMYqHvaPmUrptJwR/nX6D+yr+33qBhTQf+CeVlp4z8nk/s6aroW0HphNVsRs5/vdCOehFe06L+wX/AMFZdX8seGf2Sbrwxvxl4fAPhfSRHkD7x1aKILtJHOcAAHsa/vjN3qEmMPfrnJHnXF82PXmV0/Ud/Xq0pevz9q+gYDP0G8SN+O4H8Qa9GVXmk5Nbtvf/AIB8zDEShHliml2UnGLVrWcV/ntp5n8VfhH/AIIr/wDBV74jiF/FnjLwh8MLWfb9rg1fx/odjNFG20yRfYPCsWo3toyDrALEBiu0MSBX1f4N/wCDbDw9qs1hqf7Rn7Vvi/WriBne70L4baPdag805CeZG+teLJIozEDkLOuhrypIL5XZ/U+VZeGbc2OW45PrxgflVEwuSWK5Y4ySVJOOnJPapc30SX4lubl8Vn2bV2lppdu2nTT5H5Q/Bv8A4I2/8E7Pg4LOfRvgHp3xK1y12M2u/Ga6m8YLPMmPLubvQZP7P0Bp43CyIIbWMCUqxGFBr9ItF8MaN4M0u30PwnpOieEdHs42jtdI8IaNp3h3T7eMjb5UMelQWsvlsMKUkup0KjDgqSG6xoyCVA49AQO3198ZqoRxyDg+oqeZ9394STsru918layVvlp8zkbqGZwSUlb3cuTz3JJHuDk+3Q4rmbiymMhIRRliSTtyM9RgjdkcDjIyTz1I9KuYwyEAc4PHTkYPfjnjP4965e4j+boQOxxx9fxye9IE7u+i2uultF8rb/8ADHlGtWLEt8uSpPY9OMdRz0GB/MnnyjXtPLI+F9TjAOCOnUgDPQcAfWvf9XtwcnI9P68cf1/OvNdVs0YsvJB7BehP049MUeh2w5Pc+HXlettdUnd+uz3te/Y+cbzT8FyEAbLeuDyeD6E4POBjPPqOVurZS4LIpIzglQSARg4yM4IODg4Ix1ANew6pZoplwACruP8Ax7vx75yef0I831KJA7AY556d/bgAdOpGc+tc8krvRbvp5nekraJK6WySvp5f5s/nD/4K1fsFeGfi5Y3Oorpv9l2nibxLB41s/EFrNBE+meN7CMDxXosUWxpmg8X+GXnN0qh4IbjTYJLdIZ5QX+d/gD+1J4K/Ys/Zx+Gvw8+Cng7UL74z/AOHxgPjR8SPCmu6EPHfh7QfGHi77d8J9Q0JdS06+TQNPKsb3Xv+EfsPt+veK8/8JBySK/pH+Jvg+18d+HdZ8Ia4qpZazHtsr3buk0jWYy8mmaxa7g/723uNqTqyNHJC7LJFLyo/ma/aZ/ZW1v4a/FeT4pDV7XwtbLJqHgb40TRJhNSt3nFlpupaEu1ofttzdNFqlpoQhnuYY1ZbJo2ctXmY91KWHr04y5Y1Gmm5KLjL4mldptvR6P5a3OeGGpvF06jceSPM3C0XrKylu3a+j2tdtaX1/Re0/bp+NP7bzw+NfiX46ufEnwuXRtUsPAfgHwlFp2hSa38Qba10+eW0bw1HpdrqWqaveNctqXi3V9Uni0fSyLZ9K86C5a2svGfEv7XfwS+CWiazDrmp3Nz4p8Q3SX8tr8KraX4c6de2dmF83w/qfim1so7vxg25iNUN+DvfdknOa+KLLwNr3i2HSfD3wk8MSQ+DIbH+xZvF0FifBX27dpyrqEy3mm7PL8L6ml6BaWN8FbXgACSABX1x8C/2B7/UV8FJ4jHif4m+IvB5vbXQLPxZeeX4a+HujAhz/Ynh3Il02TPEjSFVZlEik5OflaEayc+arOd5R5W1K0d9VeUrp6bNLTY78RCjSUXTUIq0r8vKtI2tsrdex5V8M/2q/wBrX4vQ6Jd6PougaH4Ds7zXvtvhK58OG18CXngPUbCzPhHQrHXdS1HUdfsNC8JahYf2+LH7ATf69/xPTf4xXvvwI/4J26Zq/j7xF8VLvwfHqPibxv4o1Xxrrup3SH+y7K/110kvG8KX8iPM9vcyRkMlrbqd6Rfv7TBmr9e/hf8AsceGNEurOfx6sevXcIQx6HcRBfCsDKMqSiBfMPC7icbio3Z6V956N4E03SYLay0y3t4o7WNIrWOKBYLKxiVeIdPtUURRogODI6+YWLN/FmvawuX4jFStisVKthoW5sOqMoKbk1y++qsrcvJZ+6+ZPWx4VXE0p/8ALqMXFu0uddNNVy22S+Wh8Y/C39lnQfDFvaG/s4InjSPy7eKJQSRjg4XLc7cgjjBIAAOftHwz4HgsreKCCyhsrVNgUhFDbRjAztAHAbgEZBGD3HpuieGIYdjzRm4ncD5yAwBBOMnAzyc8AAcnjOK9KsPDEcoV5sPtwVRcBE9MjhSVz0wT15zmvp8Ng4xio0qVOhRilZJJNqL0X889t5WT0aVnpxTrpNRiuZrZJe6vNvrtqtXo0zzmx0CFQq7Q2JG+Zhkkkck/3c8DIyW46jFddb6c0a/IpAxxjvyO/JJ7evY8Amu0s9EhVsLCFAdhkgdjjcM4A7NgEH6npvrpkQAAA6jJHHBA7AdOuOcdMjIOevlUdElpp9xmcTp+lyFhJMpIznBHQ+6kenYc+4xXc2KrCgUJjkckcsCB074/Hvwx5A1bfTowBgc9Ouce3PPb6d8d61YtG3spYdxnJ5/AcnI75IpgQ6fZzXUgCqQmQTx0yeMnA7YHuMmuwj0xYUUYO4nOSOSDjr04yOg9K1NKtI7dEVFyRgggevBzgDLHt7Z9BXSx2JnAcISevToT6eh4/HrQBzMenMyqQuAw45Ix8oI45J9j+YHfRttMIYkjI3cZHHBBB4xzjP8APtXVwacxwCoAxwW78f3ck4wO5XryD0rVhsIVI3Dcc59uOenT16568kmgUtn6MwLTTGONqDGRyAcdSeW59e2T7YregsBFtLsAQQRt5PGeCSCfTOAtaaqqDCgKB2ApSATkjP8Ak/40GBAAAAB0AwPoKKKKBR2XovyLFFFFAwooooAKKKKACiiigAooooAKKKKACiiigAooooAKKKKACiiigAooooAKKKKACiiigAooooAKKKKAGMueR17j1/8Ar/z+vWKrFMZc8jr3Hr/n/PuAPooooAhYYPseR/n/AD2ptTMMj3HI/wA/55xUNAFeiiigApr/AHG/3W/kadSEZBB7gj86AMp/vH8P5CqbfdP+e9XHGCffmqzDkj/PNAFcEjoSKNxzk89evPXrQRg4/wAmnhM9ePbv+NADkkWM5RQp/vAYP5g5qT7U/PzNz15PPXr83PU/mfWm+R7/AK//AFqPJx3/AF/+tQBZMjEZLMeMjLE9fxOM8VVN0QSM9Pdq8i+LvxXm+FQ8Fuvgjxd40tvE/iRNDvT4R006ndaJbyQkjUbq1UhnhE0kYADoWCSKGH3l+d9S8UfHzxpol/8A2d8NvE0OgyMSmm3SaN4NGreCwwHmPqN1rviDxCfEviQ4JjTDrzn1OE4ySdk5OztZXu+mnX0/M7MFho4qvRpTqqjGpXo0ZVJJNQVVyXO/fhpHl/mW/wASsr9H4/8A25fgX4MNzaR6/J4p1Szmkt7jTPDFpqOp3MU0ZUNHJ5dkUVg26NskBWUqc5OPk/xb/wAFCfGOqoU+Hfw/h0aMsWXVfGWqW8UUsRxgf2fb2st7Cy4YkTRoTu27VwWr5K079m/9o/x/4r1L/hCvhTrfhfQpbyZ45/F13Hay+cZHN08l5qC2yq25SwtzLKUQKwkYSZH1D4M/4Jq+IdWaO6+KnxNutPjYK82leGrd7yVCBloWuJWht9jEBS8crgKS2GI21+b4nM+NsbiJ4TBZdDL1SvzV6mFhBVYzk4wkp1q0ork5G7xT5lPolr/b+A4P+jDwPlOX5jxHxBUz7MsVQp1q2XwxrznEYepyqXsq2X5S1DD3lNxTxmKhGfL7sfcnb5H+JX7SXxS8ZmSLxj8WNXlZj/yBPBsTaHYwrnIt3uUdpLpB91nkVFfYP3SsCK8e0mw8Z+NboWngr4bal4iuuJbrULhmupgJM7J5rm73CTzWR/lQRopVmVFGRX7n+A/2KP2evAbJOng4eKL+Pbm+8TzSXG90+7KLaOXYjqQGHzABh0I4H1Lp2n2Gj2aafpFla6XYRKqx2VhCltboqAhAEjA3FQcBmJO3jpxXBHw/zTMKv1nOeIsa6jlzezw9Wr7ON3zcnJzwhyp2UdZJe9o00a4v6TXh5wvRlhPDnw4T5YxjTxuZ1sPlWHjKGka1HLsrwyk5TjrOOKxFWbajeo3zX/B/wV+wt+1D8RIop/F17pngrSpSpGXha7SA/fVkaSMK6qCgG4kHnBIIP2T4B/4JrfCPww0F1461/VPHV4CrS213vjtRKpIUoBKildwBOBnAII5BH6TLGzY4IB5yR146+5PqevUmoBbbnw65HUkc9uMZ9xzxx19DX2uWcF5BhVGVXDVsbWhb95i67qKTsve5ORW1V9JbvyR+O8T/AEl/FjiWNWhQz+HDmEfMoYfIMPDBVIwldSjPGP2mMk+XT93Wo3vJzU7x5eL8G+AvBXgeyj0/wb4YsdLhiVVWZIlL4UtgtIxZmJBIB3EEYHQKq96vmsVeaZ2YdFQKqgdx79s/T8asrDwMDA9BgD34+tL5J9/zFfXU6VGhBU8PQo0KaSSjSpxjeysuZ25pNLq2fg+NxOKzPEVMZmeLxOY4urOVSpiMbWqYipOc3ecnKrKTbk0m27t2WuiK6psBCqQCSSBu5J459fxoEYDFgp3Hvz/LpV3y/f8AT/69Hl+/6f8A16zu+72tv07enkcKSWiVl2RUKk8EH8jTTHwflI496u+X7/p/9ekMfB5zweMdf1pAYzxybyynHTAyQegHTGKrEEda12QAnIz78jPH1qJ4lb+HJ+p57evGBWco31W/Vd/+D+fruGRsYdG69eo6dOmfU01kbvznr1J/xq7sA6qR+dJsX0/U/wCNZgZnlv8A3T+VR4HoPyFa2E9vzP8AjULIpORn/H36UHS1bqn6MyXRM/dBJ5yQD7dxnt60wxxkEeXGM+kafnyD/h7VqtED3Of8+1Q/Zz6D8h/jQI5eW1VslOD/AHeMcHPHT1PU+3SsC+gQqfkwwGMHPQHtgnGc9xyPTrXc3Nsx5Uc4wR65HByccj0PJH4CsK4tfMyHTOOPQrg9Ppkcg469B1oG/hk72kk7dOn5+nz308vvrJnJxkryD6rnHPHXOB6+xNcrfaG0oLgEEZxjjHHU8g8c/T3r2OTS8ckb0+Y9O5xgEg+nJ7HGPmFU5dJByyjB754zxjB4zycHI4HoOlBz+3nBpXbVr7tNPumtdLbbeV9T5m1bw4JQyyRbTkkSBQc8nIYE4cHnoQwODnGQfKda8HTncQvUHa4yVOD13KB054IUgdR/FX2vceHjcMd0PPTOCM+pXdgf14PTjPPXfgs4bEG5ccq6ZXHcnGVPUc9s9eKLRbV9LPdLX5rr+fn0PQo418jUnzQs4q7XPHps2uZevydlyn59XvhrUJpWtJIrdUYsILm4jMiJcAgr8yjIU8fe55z6V5F8R/2ZF+JGnSWFzpdq+q30RttburiG3m07ULIn93HcQMjR3kAJLeROjeWzM8BimxKv6gHwbZRS7I7a2WTcWkiljEhmGMMUUjCkEZHODnPBwa6jSvACSRmSNI7bzQuJXy0inJLJ5RJGCOM9R781y4/L/raim0krfC2k7NO2jTTTvo11B1U03Ga62ak1bS22jXW+id9NbWPyb8J/sTHQDBcagLSURBW8u2sIrdfYBip4+bOQc55yc4H1D4a+Gf8AZEUNvp2lLiIrnegkXC8ZwFUA5PZRg4I5GD9/23hLyICjlbrC4/1QfcRgdDyABkAZz65J5gXwLbzS+Y1s8W4j7h8hR7bVHTIOAePQAHFKhleEp8vNCF4uKd2tXG1205df8zgnUcm+ao3q1702/lvf7j5j0vwnenYLhktl6GOMbWAyOAqgHJ6AHjvzwR6Zo3hK0jMZaKa4KkcgbVDflyBxj9K9rt/B9lagZjU4OTnLk9eCW+UnpgkEDsa0U023i2qqhRnGSAQOnYAY6dOfr1r2Yxw1OCUYwvy2XLC+tu7SXzTfkc0lDdOUm+0mt/U4OLQLNFCiMAjGMgMByOgB5PA6nrzVlNFQYAZgueQqkdAP4vc846/jg16MunQFMgjnj5e34E84/Ee2KUaWvGAD05Ocfj2J9Rx+VZNvWzdu1+nYRwsGiRZG6R+MEnJAHXOB8x7n0Iz61tQaLbgZ3MTjPAZjggYznB5649ee/HVQ6Y+4bVTIPUKBjr044B569c961otKJBLOvGONpPr2O32749zikBykGmxoQQCce31xgDPt1PYEVsW9llk+XAz97nA4HGQeD6D9ea3Y9OAIJKlQORgYPYdDngkd614LIFlHA6kZzjjrnBPPB/8ArUGsZX0e/R9/+D+frvUs7TAXIGQcAAdT0JwPX+p611tpAsceCOTgnn64HHtgnk8k8802CzWNQeC394gjAJ7D/Ekn1xV9U7DgDr/nuaByly+v9agwGSMcZPH40lK3U/U/zpKDEsUUUUAFFFFABRRRQAUUUUAFFFFABRRRQAUUUUAFFFFABRRRQAUUUUAFFFFABRRRQAUUUUAFFFFABRRRQAUUUUAFFFFABRRRQAUUUUAFV6sUxlzyOvcev/1/5/XqARUUUUAV6KKKAM1xkfSqrjofw/z+tWzyCPUGqzAkcetAENFO2N6fqP8AGjY3p+o/xoAbSr1H1H86SlXqPqP50AMdVk271V9p3LvAbaw6MuQcEeo5p4JA2gkLgDaOBhegwOMDsO3al2N6fqP8aNjen6j/ABoOlNrVNp73Ttr3K6oVBCjaCSSFwASeSTjuT1PU0bG9P1H+NW9g9T+n+FGwep/T/Ci77ifvNyl7ze7erdtrt6uxm+We5H8/8KeIwegJ/wA/h+tWNqjt/X+dOoAqiJ+mcD2P/wBcUvk85wSfcj/Perv7v/O6lAQnA/rQBU2N6fqP8aNren8qtMncfl/n/P8AVu1vStYyvo9+j7/8H8/XfWMr6Pfo+/8Awfz9d6tFX1tpD6D/AHiR+mCfzFSC1buyn8x/SsjIzKUAnoD/AJ961BbkdNn5n/Cl8h/VfzP+FAGSUzwU/wDHf/rVC0WP4eOx2/z4rSZBjgc00ox4I/Uf40AZTxZ52c+m3r09eOKrPAwBIjPc42nj9On8v1raaI9gfp1qPY3p+o/xrOUb6rfqu/8Awfz9dw54ROWI8o8Y/h5HGeRjv26U3y89FP8A49W75T+n6H/CnrERzjJ/LH59aiz7P7mdXN3Sfy22/wAtPlq7GMLfHWNie/DGnraqRuYhQRnnB69M8Ac/X8K16OgxgY+gpCu1/Xmn+iMJrM5IKhgSoB4xyfU+/qOPXkVSnsVYEY6fQEYPTkYB7fNnHIByTjpcHqFIPoemO/JGPcAjGR1HFVZI2flVYEEhlI+YfN24OQM+pAHTnIoFJ6PRbP8Ar+u/pbjfsrI4OAVGec8DqOQeQfbkehJqYWEb4ZVAOeV7HjB6njAAODnnJ610H2MueVIJ3c4J6deDx145yATxUi2ewjORnPQYGPYnp6nrk8DpkhxT3Xp+rMFbKIAZhjyOhymR6YO6kawhYYMKdMfeHQ9eAwH/ANfnrXUiyhIGVwfx/wAaellDuHHr2z2PqaCDiR4dt2cSi1hZ16NlC6g9gxbcv0yPcda0odDAYDykUA5BDLj34DdSMDgdOvSu9g0+MhflwvPOO3IGOQT0xx+NaEenwYz3B7AAD8Ofrmnd93947tbNr5nJW+mRxqBgA5z3/DA5H0PPNXhYRsoUqWAAAyDxgDjJX29ea6FII0GMZ568j8OD9fzqwMAABRwMDOT049aVl2JaT3SfrqckdMhJP7t8HttP+FN/smA8eUfxX/EV2G7/AGV/KlBJOAq/l/8AXoGctHop28QLjI6naeMdj1HqDx7VaTRZBtIiQdOeOM+/09se1dKEbsMD04H/ANenCMHruH0b+naugDDTSGU5YIF7kEAj8gPy/UVZXTYlzuwfTGD65znNaf7sfwkevHP6GkDxk4wc/j/jQBlrZxAYwffHA6+hzjt361ZSBF2lV4B9Scc9wT/jWhgEdBj6evNI/wB0/h/MUDTs0+zuOAA4FFFFAgooooAKKKKACiiigAooooAKKKKACiiigAooooAKKKKACiiigAooooAKKKKACiiigAooooAKKKKACiiigAooooAKKKKACiiigAooooAKKKKACiiigCvRRRQBG46H8KjqwRng1GU54xj3oAy6KUjBIPYkflSUAJgeg/IUYHoPyFLRQBXooooAtqEPBVc/7o56+3FP2J/dX/vkf4VDUqtng9f59fyoNYyvo9+j7/8AB/P13iooooMhMD0H5CjA9B+QpaKAI/L9/wBP/r0eX7/p/wDXq95CerfmP8KPIT1b8x/hQA3p0puxQQQoBGcYGOvHbr+NPPBI9CaSg6Cx0ooooAKKKKAK9N2J/dX/AL5H+FOooAYY0PVR+HH8sUnlR/3f1b/GpKKAM3Yvp+p/xpdqjsPx5/nS05F3MFzjOeevQE+3pQBX2N6fqP8AGjY3p+o/xrYEKEA4XkZ+6KPJT0X/AL5FAGf9nP8AzzX/AMc/xo+zn/nmD252n+ZrZ8oe3/fI/wAaPKHt/wB8j/GgDF8r/YXnrwvNJ5Q/uL+S1teSnov/AHyKPJT0X/vkUHOY3l/7I/SlWM7l+UdR6etbHkp6L/3yKUQqDkBQfUKAaAHqoAGABwP5dvT8KdRRQAmB6D8hRgeg/IUtFAE+B6D8hRgeg/IUtFABRRRQAmB6D8qMD0H5ClooAKKKKACiiigAooooAKKKKACiiigAooooAKKKKACiiigAooooAKKKKACiiigAooooAKKKKACiiigAooooAKKKKACiiigAooooAKKKKACiiigAooooAKKKKACiiigCMpxxnPvUZGODVio3HQ/hQBHRRRQBXooooAKKKKAG7E/ur/3yP8KNif3V/wC+R/hTqKAG7E/ur/3yP8KNif3V/wC+R/hTqKAG7E/ur/3yP8KNif3V/wC+R/hTqKAG7VHRV/If4U6iigAooooAKKKKACilwfQ/kaMH0P5Gg1jK+j36Pv8A8H8/XeeiiigyEwPQfkKMD0H5ClooATA9B+QowPQfkKWigBnlx/8APNP++V/wo8uP/nmn/fK/4U+igBMD0H5CjA9B+QpaKACiiigCxRRRQAUUUUAMZc8jr3Hr/wDX/n9esVWKYy55HXuPX/P+fcAiqVVxyev8v8/59xVxyev8v/r0+gAooooAKKKKACiiigAooooAKKKKACiiigAooooAKKKKACiiigAooooAKKKKACiiigAooooAKKKKACiiigAooooAKKKKACiiigAooooAKKKKACiiigAooooAKKKKACiiigAooooAKKKKACiiigAooooAr0U7Y3p+o/xo2N6fqP8AGgBtFO2N6fqP8aNjen6j/GgBtFO2N6fqP8aNjen6j/GgBtFO2N6fqP8AGjY3p+o/xoAYVB6/n3qMoe3P6VPtb0/lTaAFwfQ/kaSrFMZc8jr3Hr/9f+f16gEVFFFABRRRQBYooooAKKKKACiiigAooooAYy55HXuPX/6/8/r1iqxTGXPI69x6/wCf8+4A+iiigAooooAKKKKACiiigAooooAKKKKACiiigAooooAKKKKACiiigAooooAKKKKACiiigAooooAKKKKACiiigAooooAKKKKACiiigAooooAKKKKACiiigAooooAKKKKACiiigAooooAKKKKACiiigAooooAKKKKACiiigAooooAKKKKACiiigAooooAKKKKACiiigAooooAKKKKACiiigBjLnkde49f/AK/8/r1iqxTGXPI69x6/5/z7gD6KKKACiiigAooooAKKKKACiiigAooooAKKKKACiiigAooooAKKKKACiiigAooooAKKKKACiiigAooooAKKKKACiiigAooooAKKKKACiiigAooooAKKKKACiiigAooooAKKKKACiiigAooooAKKKKACiiigAooooAKKKKACiiigAooooAKKKKACiiigAooooAKKKKACiiigAooooAKKKKACiiigAooooAKKKKACiiigAooooAKKKKACiiigAooooAKKKKACiiigAooooAKKKKACiiigAooooAKKKKACiiigAooooAKKKKACiiigAooooAKKKKACiiigAooooAKKKKACiiigAooooAKKKKACiiigAooooAKKKKACiiigAooooAKKKKACiiigAooooAKKKKACiiigAooooAKKKKACiiigAooooAKKKKACiiigAooooAKKKKACiiigAooooAKKKKACiiigAooooAKKKKACiiigAooooAKKKKACiiigAooooAKKKKACiiigAooooAKKKKACiiigAooooAKKKKACiiigAooooAKKKKACiiigAooooAKKKKACiiigAooooAKKKKACiiigAooooAKKKKACiiigAooooAKKKKACiiigAooooAKKKKACiiigAooooAKKKKACiiigAooooAKKKKACiiigAooooAKKKKACiiigAooooAKKKKACiiigAooooAKKKKACiiigAooooAKKKKACiiigAooooAKKKKACiiigAooooAKKKKACiiigAooooAKKKKACiiigAooooAKKKKACiiigAooooAKKKKACiiigAooooAKKKKACiiigAooooAKKKKACiiigAooooAKKKKACiiigAooooAKKKKACiiigAooooAKKKKACiiigAooooAKKKKACiiigAooooAKKKKACiiigAooooAKKKKACiiigAooooAKKKKACiiigAooooAKKKKACiiigAooooAKKKKACiiigAooooAKKKKACiiigAooooAKKKKACiiigAooooAKKKKACiiigAooooAKKKKACiiigAooooAKKKKACiiigAooooAKKKKACiiigAooooAKKKKACiiigAooooAKKKKACiiigAooooAKKKKACiiigAooooAKKKKACiiigAooooAKKKKACiiigAooooAKKKKACiiigAooooAKKKKACiiigAooooAKKKKACiiigAooooAKKKKACiiigAooooAKKKKACiiigAooooAKKKKACiiigAooooAKKKKACiiigAooooAKKKKACiiigAooooAKKKKACiiigAooooAKKKKACiiigAooooAKKKKACiiigAooooAKKKKACiiigAooooAKKKKACiiigAooooAKKKKACiiigAooooAKKKKACiiigAooooAKKKKACiiigAooooAKKKKACiiigAooooAKKKKACiiigAooooAKKKKACiiigAooooAKKKKACiiigAooooAKKKKACiiigAooooAKKKKACiiigAooooAKKKKACiiigAooooAKKKKACiiigAooooAKKKKACiiigAooooAKKKKACiiigAooooAKKKKACiiigAooooAKKKKACiiigAooooAKKKKACiiigAooooAKKKKACiiigAooooAKKKKACiiigAooooAKKKKACiiigAooooAKKKKACiiigAooooAKKKKACiiigAooooAKKKKACiiigAooooAKKKKACiiigAooooAKKKKACiiigAooooAKKKKACiiigAooooAKKKKACiiigAooooAKKKKACiiigAooooAKKKKACiiigAooooAKKKKACiiigAooooAKKKKACiiigAooooAKKKKACiiigAooooAKKKKACiiigAooooAKKKKACiiigAooooAKKKKACiiigAooooAKKKKACiiigAooooAKKKKACiiigAooooAKKKKACiiigAooooAKKKKACiiigAooooAKKKKACiiigAooooAKKKKACiiigAooooAKKKKACiiigAooooAKKKKACiiigAooooAKKKKACiiigAooooAKKKKACiiigAooooAKKKKACiiigAooooAKKKKACiiigAooooAKKKKACiiigAooooAKKKKACiiigAooooAKKKKACiiigAooooAKKKKACiiigAooooAKKKKACiiigAooooAKKKKACiiigAooooAKKKKACiiigAooooAKKKKACiiigAooooAKKKKACiiigAooooAKKKKACiiigAooooAKKKKACiiigAooooAKKKKACiiigAooooAKKKKACiiigAooooAKKKKACiiigAooooAKKKKACiiigAooooAKKKKACiiigAooooAKKKKACiiigAooooAKKKKACiiigAooooAKKKKACiiigAooooAKKKKACiiigAooooAKKKKACiiigAooooAKKKKACiiigAooooAKKKKACiiigAooooAKKKKACiiigAooooAKKKKACiiigAooooAKKKKACiiigAooooAKKKKACiiigAooooAKKKKACiiigAooooAKKKKACiiigAooooAKKKKACiiigAooooAKKKKACiiigAooooAKKKKACiiigAooooAKKKKACiiigAooooAKKKKACiiigAooooAKKKKACiiigAooooAKKKKACiiigAooooAKKKKACiiigAooooAKKKKACiiigAooooAKKKKACiiigAooooAKKKKACiiigAooooAKKKKACiiigAooooAKKKKACiiigAooooAKKKKACiiigAooooAKKKKACiiigAooooAKKKKACiiigAooooAKKKKACiiigAooooAKKKKACiiigAooooAKKKKACiiigAooooAKKKKACiiigAooooAKKKKACiiigAooooAKKKKACiiigAooooAKKKKACiiigAooooAKKKKACiiigAooooAKKKKACiiigAooooAKKKKACiiigAooooAKKKKACiiigAooooAKKKKACiiigAooooAKKKKACiiigAooooAKKKKACiiigAooooAKKKKACiiigAooooAKKKKACiiigAooooAKKKKACiiigAooooAKKKKACiiigAooooAKKKKACiiigAooooAKKKKACiiigAooooAKKKKACiiigAooooAKKKKACiiigAooooAKKKKACiiigAooooAKKKKACiiigAooooAKKKKACiiigAooooAKKKKACiiigAooooAKKKKACiiigAooooAKKKKACiiigAooooAKKKKACiiigAooooAKKKKACiiigAooooAKKKKACiiigAooooAKKKKACiiigAooooAKKKKACiiigAooooAKKKKACiiigAooooAKKKKACiiigAooooAKKKKACiiigAooooAKKKKACiiigAooooAKKKKACiiigAooooAKKKKACiiigAooooAKKKKACiiigAooooAKKKKACiiigAooooAKKKKACiiigAooooAKKKKACiiigAooooAKKKKACiiigAooooAKKKKACiiigAooooAKKKKACiiigAooooAKKKKACiiigAooooAKKKKACiiigAooooAKKKKACiiigAooooAKKKKACiiigAooooAKKKKACiiigAooooAKKKKACiiigAooooAKKKKACiiigAooooAKKKKACiiigAooooAKKKKACiiigAooooAKKKKACiiigAooooAKKKKACiiigAooooAKKKKACiiigAooooAKKKKACiiigAooooAKKKKACiiigAooooAKKKKACiiigAooooAKKKKACiiigAooooAKKKKACiiigAooooAKKKKACiiigAooooAKKKKACiiigAooooAKKKKACiiigAooooAKKKKAP/9llZPp6AAAAAA==;" vertex="1" parent="1">
          <mxGeometry x="-820" y="-910" width="300" height="300" as="geometry" />
        </mxCell>
        <mxCell id="PJT3GM2y-y2o_rj3fnWM-17" value="" style="rounded=0;whiteSpace=wrap;html=1;aspect=fixed;dashed=1;dashPattern=1 4;" parent="1" vertex="1">
          <mxGeometry x="-270" y="150" width="800" height="450" as="geometry" />
        </mxCell>
        <mxCell id="PJT3GM2y-y2o_rj3fnWM-3" value="" style="edgeStyle=orthogonalEdgeStyle;rounded=0;orthogonalLoop=1;jettySize=auto;html=1;" parent="1" source="PJT3GM2y-y2o_rj3fnWM-1" target="PJT3GM2y-y2o_rj3fnWM-2" edge="1">
          <mxGeometry relative="1" as="geometry" />
        </mxCell>
        <mxCell id="PJT3GM2y-y2o_rj3fnWM-1" value="开始" style="ellipse;whiteSpace=wrap;html=1;fontSize=16;" parent="1" vertex="1">
          <mxGeometry x="-205.56" y="320" width="70" height="70" as="geometry" />
        </mxCell>
        <mxCell id="PJT3GM2y-y2o_rj3fnWM-5" value="" style="edgeStyle=orthogonalEdgeStyle;rounded=0;orthogonalLoop=1;jettySize=auto;html=1;" parent="1" source="PJT3GM2y-y2o_rj3fnWM-2" target="PJT3GM2y-y2o_rj3fnWM-4" edge="1">
          <mxGeometry relative="1" as="geometry" />
        </mxCell>
        <mxCell id="MfEUl_gX4qCfyYy0ScXk-2" style="edgeStyle=orthogonalEdgeStyle;rounded=0;orthogonalLoop=1;jettySize=auto;html=1;exitX=0.5;exitY=0;exitDx=0;exitDy=0;entryX=0.494;entryY=1.022;entryDx=0;entryDy=0;entryPerimeter=0;dashed=1;dashPattern=1 4;strokeColor=#E6D0DE;" parent="1" source="PJT3GM2y-y2o_rj3fnWM-2" target="MfEUl_gX4qCfyYy0ScXk-1" edge="1">
          <mxGeometry relative="1" as="geometry" />
        </mxCell>
        <mxCell id="PJT3GM2y-y2o_rj3fnWM-2" value="连接FC" style="whiteSpace=wrap;html=1;strokeColor=#E6D0DE;fontSize=16;" parent="1" vertex="1">
          <mxGeometry x="-105.56" y="325" width="120" height="60" as="geometry" />
        </mxCell>
        <mxCell id="PJT3GM2y-y2o_rj3fnWM-7" value="" style="edgeStyle=orthogonalEdgeStyle;rounded=0;orthogonalLoop=1;jettySize=auto;html=1;" parent="1" source="PJT3GM2y-y2o_rj3fnWM-4" target="PJT3GM2y-y2o_rj3fnWM-6" edge="1">
          <mxGeometry relative="1" as="geometry" />
        </mxCell>
        <mxCell id="PJT3GM2y-y2o_rj3fnWM-4" value="修改配置" style="whiteSpace=wrap;html=1;fontSize=16;" parent="1" vertex="1">
          <mxGeometry x="44.44" y="325" width="120" height="60" as="geometry" />
        </mxCell>
        <mxCell id="PJT3GM2y-y2o_rj3fnWM-9" value="" style="edgeStyle=orthogonalEdgeStyle;rounded=0;orthogonalLoop=1;jettySize=auto;html=1;" parent="1" source="PJT3GM2y-y2o_rj3fnWM-6" target="PJT3GM2y-y2o_rj3fnWM-8" edge="1">
          <mxGeometry relative="1" as="geometry" />
        </mxCell>
        <mxCell id="PJT3GM2y-y2o_rj3fnWM-6" value="收集数据" style="whiteSpace=wrap;html=1;fontSize=16;" parent="1" vertex="1">
          <mxGeometry x="-34.45" y="470" width="120" height="60" as="geometry" />
        </mxCell>
        <mxCell id="PJT3GM2y-y2o_rj3fnWM-13" value="" style="edgeStyle=orthogonalEdgeStyle;rounded=0;orthogonalLoop=1;jettySize=auto;html=1;" parent="1" source="PJT3GM2y-y2o_rj3fnWM-8" target="PJT3GM2y-y2o_rj3fnWM-12" edge="1">
          <mxGeometry relative="1" as="geometry" />
        </mxCell>
        <mxCell id="PJT3GM2y-y2o_rj3fnWM-8" value="分析数据" style="whiteSpace=wrap;html=1;fontSize=16;" parent="1" vertex="1">
          <mxGeometry x="109.55000000000001" y="470" width="120" height="60" as="geometry" />
        </mxCell>
        <mxCell id="PJT3GM2y-y2o_rj3fnWM-10" value="结束" style="ellipse;whiteSpace=wrap;html=1;fontSize=16;" parent="1" vertex="1">
          <mxGeometry x="395.55" y="465" width="70" height="70" as="geometry" />
        </mxCell>
        <mxCell id="PJT3GM2y-y2o_rj3fnWM-14" style="edgeStyle=orthogonalEdgeStyle;rounded=0;orthogonalLoop=1;jettySize=auto;html=1;exitX=1;exitY=0.5;exitDx=0;exitDy=0;entryX=0;entryY=0.5;entryDx=0;entryDy=0;" parent="1" source="PJT3GM2y-y2o_rj3fnWM-12" target="PJT3GM2y-y2o_rj3fnWM-10" edge="1">
          <mxGeometry relative="1" as="geometry" />
        </mxCell>
        <mxCell id="PJT3GM2y-y2o_rj3fnWM-18" style="edgeStyle=orthogonalEdgeStyle;rounded=0;orthogonalLoop=1;jettySize=auto;html=1;exitX=0.5;exitY=0;exitDx=0;exitDy=0;entryX=0.5;entryY=0;entryDx=0;entryDy=0;dashed=1;" parent="1" source="PJT3GM2y-y2o_rj3fnWM-12" target="PJT3GM2y-y2o_rj3fnWM-6" edge="1">
          <mxGeometry relative="1" as="geometry" />
        </mxCell>
        <mxCell id="PJT3GM2y-y2o_rj3fnWM-19" value="重复调优" style="edgeLabel;html=1;align=center;verticalAlign=middle;resizable=0;points=[];" parent="PJT3GM2y-y2o_rj3fnWM-18" vertex="1" connectable="0">
          <mxGeometry x="-0.0691" y="-1" relative="1" as="geometry">
            <mxPoint as="offset" />
          </mxGeometry>
        </mxCell>
        <mxCell id="PJT3GM2y-y2o_rj3fnWM-12" value="优化配置" style="whiteSpace=wrap;html=1;fontSize=16;" parent="1" vertex="1">
          <mxGeometry x="255.55" y="470" width="120" height="60" as="geometry" />
        </mxCell>
        <mxCell id="PJT3GM2y-y2o_rj3fnWM-21" value="Openlager 收集分析黑匣子数据" style="text;html=1;strokeColor=none;fillColor=none;align=center;verticalAlign=middle;whiteSpace=wrap;rounded=0;dashed=1;dashPattern=1 4;fontSize=28;" parent="1" vertex="1">
          <mxGeometry x="-85" y="210" width="430" height="20" as="geometry" />
        </mxCell>
        <mxCell id="MVkepNN8bB0J-Uv_SQRz-1" value="连接飞控" style="text;html=1;strokeColor=none;fillColor=none;align=center;verticalAlign=middle;whiteSpace=wrap;rounded=0;dashed=1;dashPattern=1 4;fontSize=28;" vertex="1" parent="1">
          <mxGeometry x="-645" y="-990" width="430" height="20" as="geometry" />
        </mxCell>
        <mxCell id="MVkepNN8bB0J-Uv_SQRz-3" value="&lt;font style=&quot;font-size: 16px;&quot;&gt;1. 连接飞控对于的正极和接地&lt;br&gt;2. openlager 的 RX 连接飞控的 TX&lt;br&gt;&lt;/font&gt;" style="text;html=1;strokeColor=none;fillColor=none;align=left;verticalAlign=middle;whiteSpace=wrap;rounded=0;fontSize=16;" vertex="1" parent="1">
          <mxGeometry x="-550" y="-870" width="370" height="60" as="geometry" />
        </mxCell>
        <mxCell id="MVkepNN8bB0J-Uv_SQRz-6" value="&lt;font style=&quot;font-size: 16px;&quot;&gt;注意：&lt;br&gt;1. openlager 的工作电压为 3v ~ 4.35v&lt;br&gt;2. SD 卡格式为 FAT32，最大支持 32 GB&lt;br&gt;&lt;/font&gt;" style="text;html=1;strokeColor=none;fillColor=none;align=left;verticalAlign=middle;whiteSpace=wrap;rounded=0;fontSize=16;" vertex="1" parent="1">
          <mxGeometry x="-550" y="-750" width="370" height="80" as="geometry" />
        </mxCell>
      </root>
    </mxGraphModel>
  </diagram>
</mxfile>
